<svg xmlns="http://www.w3.org/2000/svg" xmlns:xlink="http://www.w3.org/1999/xlink" width="500" zoomAndPan="magnify" viewBox="0 0 375 374.999991" height="500" preserveAspectRatio="xMidYMid meet" version="1.0"><defs><clipPath id="58e59c7ba7"><path d="M 266 184 L 365.972656 184 L 365.972656 246 L 266 246 Z M 266 184 " clip-rule="nonzero"/></clipPath><clipPath id="8e84cb2ffb"><path d="M 13 37.5 L 167 37.5 L 167 266 L 13 266 Z M 13 37.5 " clip-rule="nonzero"/></clipPath></defs><path fill="#6b7c24" d="M 192.863281 129.652344 L 193.003906 129.582031 C 199.488281 126.550781 206.328125 125 213.375 125 C 224.722656 125 235.085938 128.945312 243.050781 135.855469 C 239.804688 128.875 233.886719 123.234375 226.414062 120.273438 C 223.382812 119.078125 221.621094 115.902344 222.1875 112.660156 C 224.582031 98.699219 232.125 73.386719 255.382812 70.636719 C 255.734375 70.566406 256.019531 70.425781 256.300781 70.144531 L 256.511719 69.933594 C 259.191406 66.832031 259.824219 62.390625 257.992188 58.652344 C 257.78125 58.230469 257.285156 57.945312 256.792969 57.945312 C 251.082031 57.804688 218.945312 59.425781 213.445312 112.660156 C 213.164062 115.691406 210.910156 118.160156 207.878906 118.863281 C 200.265625 120.628906 193.570312 125.210938 189.339844 131.554688 C 190.679688 130.710938 191.949219 130.144531 192.863281 129.652344 Z M 192.863281 129.652344 " fill-opacity="1" fill-rule="nonzero"/><path fill="#d41b23" d="M 60.003906 300.136719 C 43.367188 307.46875 33.925781 313.957031 28.355469 327 C 26.453125 331.371094 31.949219 335.25 35.476562 332.078125 C 43.15625 325.167969 54.011719 318.328125 66.839844 318.398438 C 72.621094 318.46875 79.738281 318.539062 87.914062 318.1875 C 76.777344 312.195312 67.472656 305.777344 60.003906 300.136719 Z M 60.003906 300.136719 " fill-opacity="1" fill-rule="nonzero"/><path fill="#d41b23" d="M 248.6875 152.355469 C 239.523438 132.964844 215.628906 125.070312 195.402344 134.660156 C 193.5 135.574219 169.394531 145.445312 166.644531 183.660156 C 164.53125 213.273438 149.585938 244.4375 125.199219 266.292969 C 156.707031 266.222656 188.707031 252.050781 208.863281 229.347656 C 224.160156 212.144531 239.664062 205.730469 252 203.824219 C 256.863281 184.789062 255.523438 166.808594 248.6875 152.355469 Z M 188.28125 170.050781 C 186.027344 201.921875 170.027344 234.144531 145.78125 256.777344 C 162.484375 235.90625 173.199219 210.03125 175.03125 184.367188 C 176.582031 162.789062 185.535156 151.652344 192.722656 146.082031 C 193.710938 145.375 194.554688 144.742188 195.332031 144.246094 C 191.878906 150.453125 189.058594 158.84375 188.28125 170.050781 Z M 188.28125 170.050781 " fill-opacity="1" fill-rule="nonzero"/><g clip-path="url(#58e59c7ba7)"><path fill="#6b7c24" d="M 365.125 191.769531 C 360.6875 188.171875 334.183594 169.910156 297.460938 208.832031 C 295.347656 211.085938 292.105469 211.652344 289.285156 210.382812 C 282.167969 207.140625 274.132812 206.714844 266.871094 209.183594 C 268.847656 209.464844 270.183594 209.746094 270.890625 209.890625 L 271.03125 209.960938 C 289.710938 213.976562 303.382812 228.363281 306.90625 245.425781 C 308.597656 237.878906 307.328125 229.773438 303.171875 222.863281 C 301.480469 220.042969 302.042969 216.445312 304.441406 214.261719 C 314.800781 204.671875 336.226562 189.089844 356.316406 201.074219 C 356.597656 201.214844 356.949219 201.289062 357.304688 201.214844 L 357.585938 201.144531 C 361.601562 200.300781 364.773438 197.128906 365.550781 193.109375 C 365.691406 192.613281 365.480469 192.121094 365.125 191.769531 Z M 365.125 191.769531 " fill-opacity="1" fill-rule="nonzero"/></g><path fill="#d41b23" d="M 269.832031 215.386719 C 267.789062 214.964844 242.625 208.125 217.179688 236.824219 C 189.691406 267.917969 140.214844 286.175781 94.609375 273.484375 C 55.5625 262.628906 38.929688 255.929688 20.25 266.433594 C 16.089844 268.761719 18.066406 275.179688 22.789062 274.824219 C 33.078125 273.980469 45.90625 275.179688 55.984375 283.074219 C 76.214844 298.9375 117.730469 332.21875 185.253906 331.726562 C 251.4375 331.230469 293.65625 297.742188 301.339844 261.921875 C 305.851562 240.910156 291.753906 220.113281 269.832031 215.386719 Z M 242.625 239.078125 C 221.410156 262.980469 189.128906 278.84375 156.140625 282.015625 C 182.152344 275.601562 206.398438 261.570312 223.453125 242.320312 C 237.832031 226.105469 251.648438 222.722656 260.738281 222.722656 C 261.9375 222.722656 262.996094 222.792969 263.984375 222.863281 C 257.425781 225.753906 250.097656 230.6875 242.625 239.078125 Z M 242.625 239.078125 " fill-opacity="1" fill-rule="nonzero"/><g clip-path="url(#8e84cb2ffb)"><path fill="#fea621" d="M 40.339844 249.9375 C 52.8125 249.9375 66.628906 253.886719 85.800781 259.3125 C 89.535156 260.371094 93.484375 261.5 97.640625 262.699219 C 101.589844 263.828125 105.605469 264.671875 109.695312 265.238281 L 117.730469 258.046875 C 139.4375 238.585938 153.535156 210.523438 155.507812 182.886719 C 156.496094 169.417969 159.808594 158.84375 164.175781 150.59375 C 162.910156 148.902344 161.851562 147.277344 161.078125 145.515625 C 154.378906 130.003906 158.1875 114.988281 166.433594 111.25 C 166.433594 111.25 153.113281 105.398438 143.03125 114.351562 C 132.953125 123.308594 133.445312 140.296875 136.476562 149.816406 C 139.507812 159.335938 141.410156 174.707031 130.132812 177.101562 C 118.996094 179.5 102.433594 163.355469 102.785156 131.554688 C 103.070312 99.6875 115.050781 39.402344 59.4375 37.5 C 59.4375 37.5 74.945312 50.542969 77.34375 68.664062 C 79.738281 86.785156 75.367188 91.648438 71.351562 93.480469 C 67.332031 95.316406 51.617188 92.285156 58.382812 70.921875 C 58.382812 70.921875 44.074219 77.617188 42.734375 101.449219 C 41.394531 125.28125 57.042969 144.527344 60.074219 148.054688 C 63.105469 151.4375 74.875 167.796875 70.433594 188.382812 C 65.992188 208.902344 48.230469 208.902344 45.132812 196.070312 C 42.03125 183.238281 54.789062 158.558594 29.625 146.503906 C 29.625 146.503906 36.8125 161.308594 21.589844 180.488281 C 10.664062 194.308594 9.253906 225.328125 24.761719 252.191406 C 29.695312 250.710938 34.769531 249.9375 40.339844 249.9375 Z M 40.339844 249.9375 " fill-opacity="1" fill-rule="nonzero"/></g></svg>