<svg xmlns="http://www.w3.org/2000/svg" viewBox="0 0 512 512" id="akhilesh-yadav"><path fill="#f1f1f1" d="M203.041 512h-.4a3.015 3.015 0 0 1-.366-.565c-.33-3.576.29-7.106.77-10.606.753-5.466.832-10.977 1.451-16.445.552-4.87 1.011-9.747 1.452-14.628a15.513 15.513 0 0 0-1.493-7.62 46.058 46.058 0 0 0-2.83-5.556 14.668 14.668 0 0 1-2.02-5.229 15.5 15.5 0 0 0-2.63-6.05 24.85 24.85 0 0 1-4.05-14.922 12.71 12.71 0 0 0-3.462-9.347 38.795 38.795 0 0 1-5.63-7.557 6.206 6.206 0 0 1-.984-2.184c.385-1.241 1.234-.753 1.912-.44 2.659 1.232 5.443 2.18 8.016 3.601a28.548 28.548 0 0 0 8.101 2.72c5.272 1.107 6.437 1.539 7.04 8.42.198 2.265.373 4.538.546 6.809a14.573 14.573 0 0 0 6.667 11.347 36.424 36.424 0 0 1 12.298 15.144 13.823 13.823 0 0 1 1.32 4.593 139.05 139.05 0 0 1-2.159 16.315 45.946 45.946 0 0 0-.917 11.59 44.076 44.076 0 0 1 .826-8.742 69.675 69.675 0 0 1 2.048-8.798c.83-2.899 1.785-5.752 2.776-8.595a6.076 6.076 0 0 1 2.955-2.871 25.174 25.174 0 0 1 4.61-1.9c5.537-1.601 9.603-8.11 9.596-13.53-.003-2.214-.078-4.43.033-6.64.183-3.659 1.203-4.941 4.719-5.638a52.49 52.49 0 0 0 13.663-4.895 59.512 59.512 0 0 0 13.471-9.253 18.445 18.445 0 0 1 3.021-2.297c.591-.354 1.315-.9 1.802.195.013 1.233-.791 2.1-1.346 3.08-4.416 7.81-10.423 14.397-16.08 21.248-1.664 2.017-3.099 4.2-4.702 6.26-1.439 1.848-1.293 4.06-1.017 6.196.723 5.596 1.81 11.129 3.041 16.633a37.198 37.198 0 0 1 .849 6.173 3.25 3.25 0 0 1-2.296 3.566 48.503 48.503 0 0 1-10.92 3.11c-3.084.4-3.77 1.67-2.141 4.306 2.697 4.366 2.337 9.166 2.005 13.899-.172 2.453.067 4.992-.791 7.383a4.076 4.076 0 0 1-.791 1.72h-.4a2.476 2.476 0 0 0-1.55-.202q-22.231-.01-44.462 0a2.476 2.476 0 0 0-1.55.202ZM492.276 391.879a5.773 5.773 0 0 0 2.98 2.116 14.981 14.981 0 0 1 3.576 2.141 26.041 26.041 0 0 1 2.174 1.747c2.94 2.604 6.084 4.984 8.712 7.938.752.845 1.521 1.674 2.282 2.51v20.976c-.29.26-.48.607-.762.875-3.809 3.167-7.611 6.341-10.031 10.816-2.17 4.013-4.475 7.944-6.865 11.827a43.45 43.45 0 0 1-3.471 4.926 54.49 54.49 0 0 0-9.288 17.497 38.873 38.873 0 0 1-6.876 12.426c-2.188 2.64-3.551 5.835-5.534 8.623a49.902 49.902 0 0 1-6.215 7.609c-.592.558-1.186 1.639-2.09 1.085-.796-.488-.197-1.486.021-2.227a57.702 57.702 0 0 0 2.259-14.686c1.364-9.625 2.436-19.283 3.57-28.934.822-6.996 1.215-14.03 2.13-21.016a57.888 57.888 0 0 0 .533-8.824c-.18-7.69.82-15.26 1.801-22.845a62.79 62.79 0 0 0 .674-7.208 12.924 12.924 0 0 1 1.527-5.782 6.511 6.511 0 0 1 .287-.602c1.882-3.42 5.144-3.848 10.322-2.835 2.496.489 5.183.557 7.414 2.119.305.214.633-.004.87-.272Z"></path><path fill="#f1f1f1" d="M449.649 512h-.4a1.275 1.275 0 0 1-.282-.499c.228-1.834 1.496-3.117 2.52-4.46a150.984 150.984 0 0 0 9.649-13.707 4.017 4.017 0 0 1 .867-.772.664.664 0 0 1 .54.157 1.565 1.565 0 0 1 .222 1.347c-.856 3.995-1.387 8.075-3.137 11.834-.727 1.563-.383 2.19 1.285 2.547a5.815 5.815 0 0 0 4.508-1.186 23.97 23.97 0 0 0 5.794-6.056c7.792-10.467 15.305-21.141 23.097-31.608a58.449 58.449 0 0 0 8.653-16.256 58.926 58.926 0 0 1 6.705-13.913 4.334 4.334 0 0 1 1.264-1.534c.822-.477.868.104.862.714q-.006 35.473-.003 70.933c0 2.248-.005 2.25-2.293 2.25q-28.85.002-57.7.01a4.042 4.042 0 0 0-2.151.199ZM0 431.323a1.677 1.677 0 0 0 .915-.331 74.972 74.972 0 0 0 4.183-3.332c1.657-1.414 3.196-2.961 4.907-4.323a19.174 19.174 0 0 1 4.28-2.839c1.697-.727 3.442-1.344 5.178-1.976a3.588 3.588 0 0 1 .98-.073 1.2 1.2 0 0 1-.33 1.07 10.99 10.99 0 0 0-.897 1.23c-4.238 5.456-4.91 11.906-5.044 18.494q-.088 4.333.001 8.67a83.65 83.65 0 0 1-1.02 14.45c-.676 4.443.073 8.824 1.071 13.177 2.493 10.873 5.883 21.499 8.66 32.293a11.362 11.362 0 0 1 .617 3.554 1.74 1.74 0 0 1-.32.613h-8.393c-.053-.065-.107-.13-.16-.192a5.57 5.57 0 0 0 .034-.24c.177-.342-.232-.322-.32-.506-5.084-8.43-9.918-16.98-13.232-26.315-.4-1.127-.416-2.38-1.11-3.404Z"></path><path fill="#d5d5d5" d="M0 481.343a.904.904 0 0 1 .834.713c.361 1 .596 2.036.968 3.04 1.743 4.702 3.847 9.232 6.044 13.727a63.957 63.957 0 0 0 3.483 6.064c1.29 2.038 2.385 4.162 3.471 6.303a.27.27 0 0 1 .08.274q-.046.134-.089.134c-2.106.42-4.234.086-6.346.195-1.308.085-1.679-.966-2.027-1.866-2.287-5.906-4.715-11.766-6.135-17.975a1.493 1.493 0 0 0-.283-.525Z"></path><path fill="#f1f1f1" d="M0 491.427a1.34 1.34 0 0 1 .76.878c1.137 4.278 2.812 8.37 4.26 12.539a49.766 49.766 0 0 0 2.207 5.6 2.495 2.495 0 0 0 .765 1.155q.198.133.133.267t-.131.134H0Z"></path><path fill="#928f95" d="m449.182 511.547.067.453h-179.86l-.067-.397a1.54 1.54 0 0 1 .656-.44 7.436 7.436 0 0 1 2.373-.216q39.205-.013 78.41-.004a7.9 7.9 0 0 1 1.194.059q1.759-.08 3.518 0a14.024 14.024 0 0 1 1.795-.065q44.229.002 88.457.013c1.172 0 2.418-.26 3.457.597Z"></path><path fill="#f7f7f7" d="M449.649 512a1.06 1.06 0 0 1 .873-.397q.9-.006 1.798-.006h56.137c.466 0 .932.005 1.398-.002 1.718-.026 1.72-.03 1.745-1.853v-.202l-.009-71.777a.622.622 0 0 1-.09-.789.363.363 0 0 1 .499-.003V512Z"></path><path fill="#928f95" d="M179.06 512H83.535l-.069-.394a1.488 1.488 0 0 1 .652-.435 12.748 12.748 0 0 1 2.978-.225q44.33-.002 88.658.002a14.19 14.19 0 0 1 2.39.108 2.174 2.174 0 0 1 .724.28.49.49 0 0 1 .192.664ZM23.182 512l.047-.44a3.021 3.021 0 0 1 2.26-.598q23.874-.021 47.75.007a5.855 5.855 0 0 1 .993.09 2.44 2.44 0 0 1 .72.28.487.487 0 0 1 .19.661Z"></path><path fill="#f7f7f7" d="M203.041 512a2.125 2.125 0 0 1 .675-.363 13.718 13.718 0 0 1 1.59-.04q21.517-.001 43.033.014c.759.001 1.608-.305 2.265.389Z"></path><path fill="#87848a" d="M179.06 512q-.004-.18-.02-.36c.72-.791 1.69-.679 2.598-.683q9.226-.037 18.452-.001a3.365 3.365 0 0 1 2.45.573l.102.471ZM269.413 511.657q-.016.171-.023.343h-18.386c-.016-.581-.184-1.193.326-1.67a8.566 8.566 0 0 0 3.698.642q5.789-.035 11.578.005c.972.008 2.025-.186 2.807.68ZM75.141 512q-.008-.17-.024-.34a11.144 11.144 0 0 1 8.437-.014q-.015.176-.02.354Z"></path><path fill="#e8e8e8" d="M512 436.97q-.191.01-.382.013c-1.167-2.368-.558-4.84-.422-7.285a.832.832 0 0 1 .804-.391Z"></path><path fill="#e7e7e7" d="m7.994 512-.002-.4 6.798-.001-.002.401Z"></path><path fill="#9f989e" d="m512 389.775-.435-.092c-.167-.206-.147-.506-.345-.696a1.69 1.69 0 0 1 .78-1.229Z"></path><path fill="#29232e" d="M269.413 511.657c-2.971-.02-5.942-.047-8.913-.058-2.642-.01-5.284.006-7.925-.008-1.041-.005-1.041-.029-1.245-1.26.149-1.198.357-2.392.435-3.595.22-3.41.773-6.806.456-10.242a14.687 14.687 0 0 0-1.178-5.467 67.559 67.559 0 0 0-.936-1.77c-.096-.174-.233-.326-.344-.493-1.678-2.542-.262-4.208 2.17-4.563.986-.144 1.97-.319 2.961-.41a10.103 10.103 0 0 0 3.072-.809 8.993 8.993 0 0 1 1.323-.438 28.93 28.93 0 0 0 4.121-1.488c1.954-.825 2.192-.946 2.025-3.327a43.21 43.21 0 0 0-.823-5.561c-.842-4.139-1.815-8.247-2.43-12.434a56.059 56.059 0 0 1-.825-7.183 6.485 6.485 0 0 1 1.38-4.098c2.228-3.013 4.485-6 6.975-8.803.709-.798 1.298-1.702 1.972-2.533a35.507 35.507 0 0 1 2.846-3.368 31.641 31.641 0 0 0 4.97-6.527c1.258-2.06 2.623-4.04 3.94-6.057a13.108 13.108 0 0 0 1.56-2.797c.498-2.372 2.098-4.153 3.26-6.167 5.55-9.625 11.534-19.027 15.608-29.436 2.37-6.055 4.79-12.094 6.954-18.23a13.487 13.487 0 0 1 1.432-2.872 33.42 33.42 0 0 0 5.048-13.872c.42-3.06 1.338-6.026 1.725-9.097.282-1.226.213-2.506.607-3.716.3-.922.798-1.34 1.758-.914a31.138 31.138 0 0 1 3.58 1.22c4.379 1.568 8.789 3.048 13.152 4.657a163.316 163.316 0 0 1 8.502 3.438 115.972 115.972 0 0 0 22.962 7.233 61.147 61.147 0 0 1 11.934 3.84 21.918 21.918 0 0 1 4.963 2.963c1.307 1.038 2.626 2.062 3.892 3.148a109.528 109.528 0 0 0 9.916 7.446 7.325 7.325 0 0 1 1.856 1.495 49.192 49.192 0 0 1 7.936 15.927c.773 2.434.826 2.525 3.317 2.543 3.394.023 6.809-.463 10.162-.282 6.503.352 13.045-.102 19.516.971a277.233 277.233 0 0 0 27.77 2.986c1.169.074 2.579-.169 3.194 1.352l-.01.016c-.957 1.366-2.406 1.037-3.67.924-4.97-.446-9.97-.652-14.902-1.402a214.938 214.938 0 0 0-39.39-2.6c-4.598.15-4.54.052-3.637 4.61 2.652 13.383 4.79 26.852 6.218 40.425.611 5.806 1.453 11.587 1.638 17.444.174 5.461-.965 10.673-2.303 15.889-2.301 8.973-4.777 17.905-6.292 27.066a26.256 26.256 0 0 0-.24 4.018 9.103 9.103 0 0 1-.847 4.109 2.345 2.345 0 0 1-2.38 1.51c-1.196-.132-1.639-1.09-1.791-2.13a29.09 29.09 0 0 1-.047-5.231c.269-7.784 1.307-15.511 1.582-23.302.158-4.485.47-8.984.654-13.47a98.953 98.953 0 0 0-.822-17.283c-1.088-8.048-2.15-16.115-4.316-23.98-2.254-8.183-5.525-15.98-8.619-23.848a2.32 2.32 0 0 0-1.98-1.731c-6.555-.71-12.977-2.32-19.531-3.027q-10.433-1.127-20.755-3a5.18 5.18 0 0 0-2.51-.137c6.426 6.454 9.003 14.692 11.228 23.127 2.835 10.75 5.171 21.612 4.886 32.776-.192 7.513.036 15.03-.353 22.532a123.508 123.508 0 0 1-4.162 26.013c-1.46 5.38-2.873 10.774-4.752 16.026a6.928 6.928 0 0 1-1.635 3.181 14.737 14.737 0 0 1-3.17.028c-.633-.662-.458-1.483-.482-2.286-.137-4.567.114-9.121.268-13.684.24-7.116-.822-14.195-1.076-21.301-.462-12.914-3.435-25.411-6.301-37.897a122.469 122.469 0 0 0-9.36-25.904c-.309-.64-.47-1.408-1.186-1.808-.69.264-.66.959-.886 1.479a76.63 76.63 0 0 1-7.358 13.6c-2.615 3.734-4.999 7.625-7.603 11.363-2.765 3.969-2.464 8.39-2.077 12.82.863 9.872 1.228 19.712-1.184 29.447a26.907 26.907 0 0 1-2.866 7.279c-.433.733-.952 1.674-2.001 1.24-.94-.389-.588-1.357-.558-2.145.181-4.836.935-9.627 1.228-14.443.404-6.66-.65-13.24-1.892-20.078-1.284 1.136-1.535 2.56-2.176 3.72a86.686 86.686 0 0 1-9.692 14.026c-6.368 7.542-11.637 15.861-16.819 24.255-3.743 6.063-7.338 12.166-9.64 18.96a1.999 1.999 0 0 1-1.1 1.356Z"></path><path fill="#c54b43" d="M104.028 233.113c-.1-.226-.064-.54-.425-.59-2.108-.292-2.133-.332-1.847-2.311a15.246 15.246 0 0 0 .157-1.602c.145-3.891.245-7.785.426-11.674.129-2.748.304-5.496.564-8.233.525-5.545 1.162-11.079 1.398-16.648.048-1.139.18-2.275.295-3.41a99.388 99.388 0 0 0 .768-12.25 234.14 234.14 0 0 0-.435-10.463 22.453 22.453 0 0 1 .282-5.617 64.509 64.509 0 0 1 2.317-9.773 2.489 2.489 0 0 1 .32-.493 20.004 20.004 0 0 0 6.94-.216c12.545-2.01 25.186-3.39 37.624-6.108 15.148-3.312 30.278-6.74 45.603-9.166 2.235-.354 4.51-.384 6.734-.805 1.718-.326 2.642.372 3.017 2.055 1.562 7.009 3.409 13.964 4.522 21.06a363.001 363.001 0 0 0 9.753 42.76 3.898 3.898 0 0 1 .34 2.536 3.007 3.007 0 0 1-2.142.93c-11.909 1.525-23.56 4.322-35.182 7.26-2.846.72-5.742 1.183-8.63 1.641-7.02 1.115-13.502 4.067-20.31 5.908-4.105 1.11-8.094 2.667-12.227 3.713-3.164 1.21-6.492 1.963-9.548 3.478-2.608.896-5.309 1.485-7.9 2.435-.858.255-1.712.524-2.549.845a33 33 0 0 1-4.29 1.194c-.574.168-1.143.348-1.718.51-1.17.316-2.366.513-3.546.79-.806.12-1.596.327-2.4.461a31.9 31.9 0 0 0-7.91 1.783Z"></path><path fill="#c54b43" d="M261.396 119.182a4.788 4.788 0 0 0 .582-.136 7.394 7.394 0 0 1 6.492.824 16.014 16.014 0 0 1 3.313 2.558 5.642 5.642 0 0 1 1.455 2.603 23.168 23.168 0 0 0 2.478 5.478c2.907 5.048 5.8 10.105 8.759 15.123a103.859 103.859 0 0 0 6.877 10.61 86.18 86.18 0 0 1 7.896 12.807 79.531 79.531 0 0 0 8.147 12.395c2.355 2.997 4.544 6.127 7.093 8.969a8.161 8.161 0 0 1 .57.81c-1.092.994-1.962-.035-2.914-.322a30.132 30.132 0 0 0-7.819-3.216 42.367 42.367 0 0 0-6.009-1.182 75.015 75.015 0 0 0-20.206.88c-4.564.853-9.133 1.682-13.672 2.655-5.273.844-10.229 2.851-15.32 4.349a233.027 233.027 0 0 0-22.343 7.314c-.965.392-1.993.84-3.062.218-1.16-1.47-1.48-3.289-1.957-5.019a363.873 363.873 0 0 1-9.1-40.452c-1.08-6.898-2.814-13.676-4.448-20.465-.543-2.256-.299-2.854 1.853-3.32 10.217-2.216 20.39-4.61 30.478-7.373 6.806-1.864 13.673-3.505 20.373-5.738a2.213 2.213 0 0 0 .484-.37Z"></path><path fill="#da9b76" d="M264.137 189.66a23.723 23.723 0 0 1 4.4-1.114c3.24-.678 6.528-1.123 9.765-1.811 1.502-.32 3.02-.343 4.525-.62 4.74-.87 9.546-.372 14.325-.457a2.561 2.561 0 0 1 1.318.396c1.38 1.097 1.836 2.779 2.543 4.27 3.99 8.417 7.904 16.871 11.266 25.57 1.232 3.188 2.594 6.328 3.636 9.59a5.46 5.46 0 0 1 .195.566c.134.482.298.954.478 1.42 1.106 3.678 2.321 7.323 3.292 11.042a93.521 93.521 0 0 1 2.508 14.787c.13 1.642.8 2.97 2.628 3.292 2.7 4.337 3.4 9.492 5.693 14.03 1.704 3.373 1.084 7.024-1.032 10.16a11.614 11.614 0 0 0-2.215 7.743 2.755 2.755 0 0 1-.553 2.291c-1.97 1.923-1.358 4.362-1.376 6.66-.01 1.231.76 1.273 1.624.767a9.424 9.424 0 0 0 4.005-5.103c.826-2.206 1.167-4.555 1.994-6.754.204-.542.3-1.721 1.367-.685.581 2.339 1.19 4.67 1.736 7.017a9.313 9.313 0 0 1-2.73 9.174c-.47.472-.981.905-1.489 1.338a6.343 6.343 0 0 1-5.614 1.33c-2.409-.463-2.796-.224-3.19 2.17-.25 1.518-.408 3.052-.596 4.58-.416 3.39-.848 6.777-1.226 10.17-.215 1.93-.264 3.88-.52 5.803-.23 1.732-.306 3.467-.418 5.205a1.575 1.575 0 0 0 .916 1.577c-.696.05-1.275.194-1.335 1.092-.056.854-.218 1.7-.32 2.551a2.359 2.359 0 0 1-.353 1.313.953.953 0 0 1-.141-.14.896.896 0 0 1-.073-.182c-.424.327-.223.838-.354 1.254-5.146 16.447-11.431 32.444-21.067 46.75a58.935 58.935 0 0 1-39.532 25.945c-1.124.206-2.666 1.044-3.355-.878.744-1.09 1.973-1.017 3.046-1.226a56.406 56.406 0 0 0 25.738-11.758 48.997 48.997 0 0 0 11.75-15.12c8.472-15.843 12.89-32.923 15.043-50.663a169.391 169.391 0 0 0 1.17-24.519c-.054-2.216-.034-2.21-2.01-1.406a9.18 9.18 0 0 1-4.656.9c-1.722-.221-2.054-1.046-1-2.412a5.723 5.723 0 0 1 .68-.737c4.852-4.408 6.392-10.12 6.61-16.466.31-8.972-.86-17.818-1.855-26.69a53.035 53.035 0 0 1-.569-6.413 6.999 6.999 0 0 0-.19-2.55 4.106 4.106 0 0 1-.148-.658c-.337-5.193-.758-10.376-1.505-15.527a4.733 4.733 0 0 1 .002-1.982c.608-1.307 1.636-.828 2.573-.57 1.255.344 2.35 1.182 4.177 1.45-3.013-3.875-5.686-7.396-9.867-9.338-.642-.298-1.458-.323-1.797-1.121.143-.85-.4-1.364-.901-1.911a18.94 18.94 0 0 0-5.82-4.18 96.584 96.584 0 0 1-9.204-5.248c-9.478-5.966-16.42-14.332-21.992-23.965ZM134.19 224.834a2.226 2.226 0 0 1 1.448-.939c2.63-.87 5.246-1.784 7.867-2.682a.925.925 0 0 1 .385.68c-.105 3.752.953 7.473.3 11.237a17.519 17.519 0 0 0-.166 3.014c-.001 9.675-.285 19.361.08 29.023.365 9.697.06 19.5 2.649 28.999 1.577 5.788 3.464 11.493 7.141 16.31a48.418 48.418 0 0 0 9.188 9.746 12.81 12.81 0 0 0 6.484 2.904 1.696 1.696 0 0 1 1.705 1.158 1.901 1.901 0 0 1-.913 2.074 10.39 10.39 0 0 1-5.008 1.823 19.711 19.711 0 0 1-8.61-.424c2.068 10.218 4.26 20.141 8.116 29.626 4.36 10.727 9.435 21.052 16.135 30.507a37.229 37.229 0 0 0 17.645 13.62c4.238 1.592 8.309 3.644 12.733 4.727.707.173 1.241.558 1.166 1.389-.087.967-.81 1.131-1.585 1.16a7.222 7.222 0 0 1-2.522-.56 94.91 94.91 0 0 1-27.671-14.491 103.238 103.238 0 0 1-19.906-19.08 3.062 3.062 0 0 0-.715-.694 4.281 4.281 0 0 1-1.364-2.204 36.846 36.846 0 0 0-2.672-5.762 6.93 6.93 0 0 1-.31-.467c-1.957-3.901-4.324-7.558-6.598-11.27a5.63 5.63 0 0 1-.96-1.976 4.45 4.45 0 0 0-.85-2.006c-2.262-4.1-4.476-8.225-6.467-12.468a8.295 8.295 0 0 1-1.062-3.63c-1.469-1.893-1.63-4.226-2.045-6.448-.8-4.282-1.331-8.61-2.052-12.954-.154.915-.052 1.853-.268 2.742a2.37 2.37 0 0 1-2.571 2.045c-1.506-.052-4.105-2.105-4.562-3.554a4.573 4.573 0 0 1 1.939-4.92 7.353 7.353 0 0 1 3.479-1.441c1.321-.154 1.267-.777 1.114-1.738-.189-1.181-.621-2.355-.244-3.583a7.537 7.537 0 0 0 .56-3.735c-.273-6.394-1.548-12.657-2.325-18.984-.81-6.594-1.385-13.205-1.653-19.862a191.818 191.818 0 0 1 2.175-35.103 4.99 4.99 0 0 1 .426-1.272 4.644 4.644 0 0 1 .363-.537Z"></path><path fill="#c54b43" d="M261.396 119.182v.332c-3.012.79-6.08 1.295-9.096 2.12-14.324 3.918-28.687 7.688-43.218 10.774-5.675 1.206-11.45 1.698-17.153 2.709-9.115 1.616-18.167 3.52-27.208 5.503-14.244 3.123-28.547 5.909-43.027 7.728-3.892.49-7.762 1.15-11.68 1.437-.665.048-1.34.135-1.837-.48.196-.49.629-.622 1.073-.802q3.235-1.313 6.445-2.69c3.497-1.507 6.699-3.578 10.024-5.412 2.978-1.643 6.037-3.114 9.082-4.62a440.653 440.653 0 0 0 9.78-5.016 105.994 105.994 0 0 1 12.962-5.715c8.194-2.998 16.54-5.471 24.963-7.697a62.986 62.986 0 0 1 8.244-1.467c2.97-.374 5.936-.786 8.914-1.089 2.646-.27 5.305-.577 7.96-.582q13.28-.022 26.56.183a61.04 61.04 0 0 1 10.888 1.27c3.593.705 7.12 1.658 10.64 2.654a17.301 17.301 0 0 0 5.684.86Z"></path><path fill="#3c3641" d="M148.232 352.282c.513.12.723.537.943.958.931 1.78 2.062 3.434 3.13 5.13a60.545 60.545 0 0 1 3.92 7.208c-1.286.914-2.83.6-4.239.809a28.47 28.47 0 0 0-10.376 3.412 75.846 75.846 0 0 1-13.025 5.567c-8.523 3.075-17.161 5.802-25.83 8.426-6.517 1.973-12.187 5.66-18.059 8.936-10.536 5.88-20.849 12.174-32.01 16.862a152.442 152.442 0 0 1-30.196 9.643c-.813.156-1.653.676-2.472-.012l.424-.772c.615-.507 1.248-.994 1.842-1.525a24.72 24.72 0 0 1 4.189-3.074 29.28 29.28 0 0 0 4.026-2.967 71.677 71.677 0 0 1 7.507-5.323c.564-.354 1.154-.678 1.678-1.086a10.098 10.098 0 0 1 5.13-2.046 8.246 8.246 0 0 0 2.506-.627c4.236-1.944 8.495-3.84 12.551-6.152 3.127-1.782 6.22-3.622 9.343-5.412a153.905 153.905 0 0 1 4.559-2.494c5.3-2.805 10.368-6.031 15.716-8.75 1.659-.845 3.222-1.882 4.818-2.85a41.448 41.448 0 0 1 5.728-2.828 16.365 16.365 0 0 1 2.084-.677 93.193 93.193 0 0 0 20.972-8.138q4.563-2.478 9.304-4.611c4.982-2.226 9.874-4.655 14.802-7.005.358-.171.69-.4 1.035-.602Z"></path><path fill="#eaab86" d="M134.744 304.618a21.264 21.264 0 0 1 .752 3.91c.06.586.143 1.17.232 1.889-.532-.041-.894-.523-1.417-.51-.592.014-.947.446-1.424.648-.299.127-.651.114-.965.213a4.599 4.599 0 0 0-3.23 4.535 2.168 2.168 0 0 0 .582 1.442 9.894 9.894 0 0 0 2.865 2.13 1.923 1.923 0 0 0 2.92-1.583 12.632 12.632 0 0 0 .03-1.807 2.881 2.881 0 0 1 .633-1.856.404.404 0 0 1 .337-.129.372.372 0 0 1 .206.274c.362 3.507 1.06 6.964 1.543 10.45.33 2.381.845 4.712 1.271 7.067a17.702 17.702 0 0 1 .774 2.887c-.272-.162-.549-.44-.813.007-.374.633-.742 1.27-1.115 1.904-.746 1.268-1.497 2.532-2.24 3.802a6.053 6.053 0 0 1-2.284 2.174 41.15 41.15 0 0 1-5.24 2.869 6.71 6.71 0 0 1-4.096.313 14.155 14.155 0 0 1-8.004-5.296 39.299 39.299 0 0 1-5.982-10.854c-1.033-2.693-2.254-5.295-3.402-7.932-1.07-2.453-2.146-4.914-3.414-7.265-1.495-2.772-2.754-5.653-4.157-8.466a26.08 26.08 0 0 1-2.425-8.238c-.368-2.716-.893-5.41-1.318-8.12a28.152 28.152 0 0 1-.547-4.374 13.339 13.339 0 0 1 2.006-7.849c.417-.602.78-1.242 1.167-1.865 1.134-.318 2.318-.4 3.437-.821a1.392 1.392 0 0 1 1.803.348 1.679 1.679 0 0 1-.558 1.25c-4.256 4.465-4.782 9.762-3.617 15.552 1.959 9.725 6.4 18.335 11.647 26.557 2.242 3.513 5.248 5.919 9.898 4.418 1.37-.442 1.803.165 1.367 1.668a22.268 22.268 0 0 0-1.037 3.674c-.248 2.204.466 3.28 2.542 3.882 4.282 1.24 7.863-.407 11.12-2.945a3.987 3.987 0 0 0 1.385-4.367c-.513-1.827-2.108-2.484-3.682-2.663-4.95-.563-9.57-2.267-14.246-3.819a11.919 11.919 0 0 1-8.643-10.497c-.25-1.863-.477-3.729-.72-5.592a8.474 8.474 0 0 1 1.353-6.153 9.093 9.093 0 0 0 1.745-6.054 7.648 7.648 0 0 1 1.394-5.491c.998-1.315.788-3.249 1.759-4.67 1.791-.28 4.088 1.15 5.239 3.26a19.338 19.338 0 0 0-.257 4.575 10.125 10.125 0 0 1-2.45 7.071c-5.881 7.152-2.22 15.51 3.309 20.004a5.96 5.96 0 0 0 1.564.875c2.877 1.16 3.07.898 4.401-1.892 1.603-3.361 1.393-6.423.061-9.853-2.006-5.168-4.13-10.365-4.381-16.05-.032-.727-.323-1.473.365-2.06.985-.3 1.47.475 2.08.981a22.567 22.567 0 0 1 2.25 2.627 28.98 28.98 0 0 1 4.779 8.955c.739 1.933 1.443 3.876 2.3 5.757a4.16 4.16 0 0 0 .451.883c.034.072.066.146.097.22Z"></path><path fill="#3c3641" d="M474.044 393.001a5.936 5.936 0 0 0-3.01-.798c-.731-.019-1.463-.003-2.195-.01a5.236 5.236 0 0 1-2.163-.252.857.857 0 0 0-.384-.093c-2.002.138-3.94-.524-5.936-.468a7.682 7.682 0 0 1-3.153-.314 2.716 2.716 0 0 0-.989-.076 31.692 31.692 0 0 1-5.695-.71c-1.429-.252-2.887-.33-4.33-.51a24.365 24.365 0 0 1-3.329-.503 9.865 9.865 0 0 0-2.556-.302 1.977 1.977 0 0 1-.399-.008c-3.553-.765-7.153-.244-10.729-.394a17.282 17.282 0 0 1-2.563-.246 11.119 11.119 0 0 0-4.547.048 2.25 2.25 0 0 1-.968.165c-1.454-.406-2.884.13-4.33.047-1.392-.079-2.793-.012-4.19-.013-.465 0-.932.002-1.396-.023a1.088 1.088 0 0 1-1.037-.796 8.418 8.418 0 0 1-.174-.577 56.016 56.016 0 0 0-2.914-8.103c-.943-2.158-2.082-4.184-3.217-6.224-.487-.874-1.064-1.696-1.562-2.564a2.306 2.306 0 0 1-.13-.773 17.446 17.446 0 0 1 3.642 2.427 45.804 45.804 0 0 0 18.464 8.175c4.486.972 9.022 1.642 13.551 2.353 2.956.465 5.907.974 8.876 1.327a117.46 117.46 0 0 0 13.118 1 72.938 72.938 0 0 1 9.532.832c2.635.365 5.281.652 7.928.908 5.243.506 10.187 1.851 14.5 5.059a4.689 4.689 0 0 0 .517.294 1.559 1.559 0 0 1 .087.389c-.019.563-.279.824-.667.659a13.106 13.106 0 0 1-1.24-.62 6.067 6.067 0 0 0-3.722-1.117 3.485 3.485 0 0 1-1.538-.33 15.738 15.738 0 0 0-6.053-.774 5.195 5.195 0 0 0-4.444 2.188 7.886 7.886 0 0 1-.655.727Z"></path><path fill="#1e1e1e" d="M103.144 274.377a5.62 5.62 0 0 0-2.962.786 2.163 2.163 0 0 1-2.194-.176 10.986 10.986 0 0 1-1.86-4.388c-.126-.654-.325-1.296-.509-1.938a31.65 31.65 0 0 1-1.114-8.533 18.071 18.071 0 0 1 .604-4.963 64.78 64.78 0 0 1 4.191-11.25c.995-2.04 1.98-4.086 3.006-6.11a19.189 19.189 0 0 0 1.722-4.69c.393-.518.744-1.055 1.48-1.164.645-.095 1.266-.347 1.91-.449 1.484-.235 2.976-.422 4.465-.628a6.592 6.592 0 0 1-.114 3.752c-1.496 7.631-3.57 15.113-5.751 22.568a40.906 40.906 0 0 0-1.968 13.654c.067 1.301.294 2.365 1.465 3.054a.531.531 0 0 1-.056.647 1.789 1.789 0 0 1-2.315-.172Z"></path><path fill="#aa332b" d="M108.177 149.305a4.511 4.511 0 0 0 1.389.009 18.586 18.586 0 0 1 4.347-.383c1.314-.1 2.615-.367 3.923-.555 2.352-.34 4.68-.812 7.048-1.094a47.899 47.899 0 0 0 6.855-1.02c1.02-.275 2.09-.245 3.139-.448 2.851-.55 5.75-.85 8.616-1.327 1.498-.249 2.967-.676 4.455-.994 4.008-.859 8-1.819 12.038-2.513 3.07-.528 6.071-1.331 9.12-1.937 2.529-.503 5.012-1.265 7.552-1.684 3.526-.58 7.004-1.387 10.511-2.046 2.791-.525 5.622-.832 8.419-1.328a91.205 91.205 0 0 1 5.884-.833 78.143 78.143 0 0 0 8.965-1.655c4.124-.954 8.27-1.81 12.397-2.753 2.065-.472 4.11-1.041 6.163-1.568 5.388-1.382 10.807-2.655 16.153-4.187 3.504-1.005 7.098-1.678 10.532-2.95a9.146 9.146 0 0 1 4.117-.52 14.611 14.611 0 0 0 1.595-.005c.195.21.101.367-.114.447-.747.276-1.49.57-2.254.795-2.861.844-5.723 1.693-8.599 2.486-3.064.846-6.143 1.64-9.219 2.44-5.77 1.502-11.531 3.041-17.32 4.469-3.467.855-6.978 1.527-10.47 2.282q-2.037.44-4.073.89a2.2 2.2 0 0 0-.368.153c-.62.264-.759.576-.573 1.272.363 1.355.773 2.7 1.076 4.069 1.311 5.928 2.591 11.863 3.882 17.796.066 2.826.895 5.531 1.357 8.29a169.156 169.156 0 0 0 4.549 20.11c.34 1.147.473 2.357.786 3.514 1.152 4.258 2.159 8.56 3.67 12.714a4.17 4.17 0 0 1 .124.59c-.365.99-.96.804-1.613.322-2.036-6.374-3.573-12.884-5.24-19.36-.868-3.368-1.622-6.76-2.442-10.136-.283-1.165-.488-2.35-.702-3.53q-.912-5.023-1.802-10.05c-.328-1.838-.535-3.693-.966-5.519-.784-3.313-1.423-6.662-2.154-9.989-.602-2.739-1.25-5.468-1.875-8.202-.045-.196-.05-.404-.113-.592a.94.94 0 0 0-1.094-.66 50.823 50.823 0 0 1-6.297.779 49.696 49.696 0 0 0-5.484.877c-2.085.36-4.169.723-6.25 1.105-1.433.263-2.86.554-4.288.842-2.53.509-5.06 1.015-7.586 1.54-2.075.43-4.146.882-6.218 1.329-3.56.766-7.116 1.544-10.677 2.302-2.914.62-5.826 1.253-8.75 1.814-3.25.622-6.457 1.454-9.748 1.872-2.622.333-5.231.772-7.841 1.194-1.175.19-2.337.453-3.506.68a2.076 2.076 0 0 1-.59.08c-1.679-.178-3.287.377-4.944.485a53.957 53.957 0 0 0-5.675.922 24.898 24.898 0 0 1-5.515.642 5.852 5.852 0 0 0-2.368.243 4.523 4.523 0 0 1-1.379.128c-.599.02-.77-.418-.884-.9a.878.878 0 0 1 .33-.744Z"></path><path d="m319.383 238.489-3.299-11.15c-.25-.396.104-.987-.41-1.3l.014.02c-2.42-12.643-5.13-25.197-10.767-36.883a2.275 2.275 0 0 1-.38-1.902 2.829 2.829 0 0 1 1.353.27c1.775.742 3.557 1.47 5.322 2.234a5.907 5.907 0 0 1 .974.674c1.941 2.425 2.99 5.362 4.446 8.058 5.335 9.886 9.38 20.262 11.062 31.474a16.58 16.58 0 0 1 .086 5.376l-.011 2.26a26.918 26.918 0 0 1-1 10.8c-1.066-.242-1.123-.24-1.15-1.605-.047-2.413-.193-4.813-.366-7.222a95.819 95.819 0 0 0-11.859-39.533 29.024 29.024 0 0 1-1.76-3.816 24.428 24.428 0 0 1-1.386-3.176c-.07-.162-.307-.277-.151-.511-.221.34.227.446.243.706a21.873 21.873 0 0 0 1.359 3.248c3.903 9.513 5.95 19.497 7.392 29.63.436 3.06.78 6.131 1.08 9.205.106 1.087.67 2.41-.792 3.143Z"></path><path fill="#eaab86" d="M334.523 285.7c-.295-.075-.633-.318-.777.202-.656 2.375-1.28 4.76-1.979 7.123a10.296 10.296 0 0 1-3.06 4.842 7.98 7.98 0 0 1-2.384 1.416c-.801.326-1.342-.014-1.357-.844-.03-1.608-.056-3.218.01-4.824a12.269 12.269 0 0 1 .439-2.15.71.71 0 0 1 .556-.511c.785-.225.982-.807.972-1.545-.013-.871.034-1.744-.008-2.614a7.254 7.254 0 0 1 1.46-4.882 13.185 13.185 0 0 0 2.004-3.684 10.373 10.373 0 0 0-.246-7.814c-.552-1.218-1.173-2.404-1.776-3.598a8.277 8.277 0 0 1-1.05-3.823 4.529 4.529 0 0 0-1.41-3.232 3.032 3.032 0 0 1-.963-2.658c.008-.133-.002-.268-.004-.402-.418-2.564.567-4.893 1.194-7.283 1.192-1.654 1.709-1.674 2.644.21a62.654 62.654 0 0 1 4.291 12.107 10.998 10.998 0 0 0 2.73 5.444c-.345 1.842-.593 3.71-1.055 5.522-.896 3.513-.583 7.07-.557 10.62.005.797.454 1.55.326 2.378Z"></path><path fill="#1e1e1e" d="M327.784 235.36a69.877 69.877 0 0 0-1.473-9.881 98.712 98.712 0 0 0-3.803-13.087c-.353-1.077-.835-2.114-1.295-3.153a123.283 123.283 0 0 0-5.735-11.716c-1.169-2.026-2.116-4.184-3.144-6.292a2.943 2.943 0 0 1-.144-.779 5.652 5.652 0 0 1 1.046.423 2.619 2.619 0 0 0 1.822.347 7.942 7.942 0 0 1 .988.983c3.062 4.318 6.566 8.292 9.65 12.587a21.87 21.87 0 0 1 4.26 9.66 37.28 37.28 0 0 1 .011 8.446 80.147 80.147 0 0 1-1.626 9.929 7.559 7.559 0 0 1-.557 2.533Z"></path><path fill="#da9b76" d="M335.809 267.18c-1.83-.46-2.499-1.984-2.809-3.55a44.69 44.69 0 0 0-2.19-7.28c-.546-1.43-.948-2.918-1.486-4.352a25.013 25.013 0 0 0-1.267-2.728 5.293 5.293 0 0 0-.787-.917l-.681 1.049a.605.605 0 0 1-.1-.839c.414-3.116.851-6.228 1.025-9.371a14.26 14.26 0 0 1 .259-1.572c.681.522 1.331 1.095 2.052 1.556a6.74 6.74 0 0 1 2.468 2.817 63.468 63.468 0 0 1 3.465 8.53 17.134 17.134 0 0 1 .819 5.13c.003 2.542-.018 5.086-.046 7.629a12.048 12.048 0 0 1-.722 3.898Z"></path><path fill="#5b5b64" d="M511.22 388.987c.39.093.324.417.345.696-.501-.037-.378-.389-.345-.696Z"></path><path fill="#eaab86" d="M222.236 202.153a1.944 1.944 0 0 0 1.613-.322 10.028 10.028 0 0 0 4.003-1.095c4.934-1.981 10-3.542 15.088-5.056 4.954-1.474 9.881-3.042 14.826-4.548a97.119 97.119 0 0 1 4.598-1.271 12.858 12.858 0 0 1 1.773-.202 1.115 1.115 0 0 1 .94.643c1.573 3.517 4.315 6.22 6.413 9.372a39.203 39.203 0 0 0 4.706 5.162c.555.578 1.138 1.128 1.686 1.712a36.554 36.554 0 0 0 7.433 5.967c3.554 2.215 7.127 4.38 10.875 6.25a18.697 18.697 0 0 1 5.814 4.473 3.737 3.737 0 0 1 .64 1c.2.484-.234.503-.534.592a2.333 2.333 0 0 1-2.078.354c-11.17-1.34-22.267-.45-33.332 1.171a69.214 69.214 0 0 0-6.865 1.164c-.98.454-.748 1.374-.686 2.12a10.976 10.976 0 0 1-2.267 7.85 23.224 23.224 0 0 0-4.135 12.853 11.534 11.534 0 0 0 3.74 9.203c4.04 3.203 8.745 5.029 13.532 6.693 6.427 2.233 13.098 2.433 19.727 1.853a17.483 17.483 0 0 0 13.22-7.26c1.534-2.416 3.156-4.776 4.726-7.17.302-.46.461-1.174 1.268-1.037.494.747-.117 1.678.395 2.422a9.607 9.607 0 0 0 .302 3.187 4.327 4.327 0 0 1 .097 1.397 7.323 7.323 0 0 0 .291 2.584 3.66 3.66 0 0 1 .108 1.195 6.272 6.272 0 0 0 .282 2.383 2.12 2.12 0 0 1 .111.79 38.691 38.691 0 0 0 .754 6.352 7.887 7.887 0 0 1 .055 1.206 7.75 7.75 0 0 0 .28 2.586 4.197 4.197 0 0 1 .116 1.394c.007 4.233.05 8.467-.014 12.7a19.682 19.682 0 0 1-1.425 6.225c-.357 1.008-.874 1.96-1.215 2.972a8.148 8.148 0 0 1-2.056 3.152q-1.555 1.566-3.106 3.137c-.192.194-.387.425-.298.696a.674.674 0 0 0 .623.436 8.65 8.65 0 0 0 2.384-.004c1.593-.408 3.267-.703 4.53-1.934.083-.08.239-.085.387-.133a1.985 1.985 0 0 1 .59 1.6q-.003 6.552 0 13.103c-.55 1.902-.165 3.887-.461 5.786-.272 1.74-.125 3.489-.383 5.193-.379 2.502-.541 5.03-1.018 7.527-.336 1.759-.605 3.547-.927 5.318a133.385 133.385 0 0 1-2.536 11.126c-.596 2.19-1.16 4.386-1.78 6.571a86.519 86.519 0 0 1-3.15 9.308c-1.348 3.278-2.68 6.576-4.278 9.732a77.213 77.213 0 0 1-6.359 10.899 47.13 47.13 0 0 1-7.584 7.929 57.233 57.233 0 0 1-9.85 6.4 53.561 53.561 0 0 1-12.341 4.464c-1.917.504-3.877.843-5.82 1.243a1.095 1.095 0 0 0-.666.395c-.19 1.109-1.005 1.338-1.925 1.32-4.918-.093-9.847.353-14.756-.281a17.212 17.212 0 0 0-2.99-.063 1.73 1.73 0 0 0-1.776 1.346c-.987 3.976-3.266 7.333-5.1 10.9a78.776 78.776 0 0 1-11.92 17.809c-.449.485-.773 1.112-1.503 1.248a16.954 16.954 0 0 1-4.737-4.51 10.088 10.088 0 0 1-1.903-4.57c-.423-3.038-1.121-6.053-.982-9.148a16.432 16.432 0 0 0-1.183-5.858 1.958 1.958 0 0 0-1.077-1.111 15.895 15.895 0 0 0-4.74-1.417 24.429 24.429 0 0 1-6.977-2.222 61.688 61.688 0 0 0-6.687-3.084c-.987-.379-1.914-.919-2.866-1.391a.561.561 0 0 0-.839.207c-1.7-.107-2.494-1.452-3.185-2.67-3.83-6.75-8.276-13.075-12.658-19.463-2.971-4.332-4.974-9.296-7.016-14.172a1.019 1.019 0 0 1 .07-1.135c.128-.18.36-.315.478-.12 1.296 2.123 3.216 3.73 4.636 5.75a8.588 8.588 0 0 0 .96 1.022c1.08 1.095 2.19 2.163 3.242 3.285a69.646 69.646 0 0 0 8.936 7.663c1.853 1.406 3.663 2.89 5.623 4.128 2.984 1.884 5.745 4.097 8.76 5.922a25.618 25.618 0 0 0 3.631 1.64q4.796 1.959 9.616 3.858c1.237.485 2.514.862 3.766 1.311a3.713 3.713 0 0 0 1.575.15.708.708 0 0 0 .714-.788.666.666 0 0 0-.533-.734 46.17 46.17 0 0 1-9.567-3.353 27.588 27.588 0 0 0-2.964-1.17 35.859 35.859 0 0 1-10.812-5.884 18.755 18.755 0 0 1-5.242-5.162 22.86 22.86 0 0 1-3.61-4.528c-1.144-1.556-2.108-3.247-3.144-4.884a121.326 121.326 0 0 1-7.153-13.238c-1.254-2.662-2.422-5.367-3.577-8.075-.812-1.905-1.521-3.855-2.308-5.772a76.539 76.539 0 0 1-2.942-8.956c-.598-2.192-1.203-4.383-1.752-6.588a75.054 75.054 0 0 1-1.062-4.885 36.133 36.133 0 0 0-1.517-6.424.772.772 0 0 1-.001-.574c.171-.301.476-.154.705-.062 1.44.581 3.03.313 4.482.817 2.68-.338 5.432-.258 7.965-1.444a4.664 4.664 0 0 0 1.552-1.237.979.979 0 0 0 .22-1.113 1.014 1.014 0 0 0-.966-.603 6.82 6.82 0 0 1-2.925-.497 18.354 18.354 0 0 1-3.004-1.576 26.417 26.417 0 0 1-6.798-6.414 5.16 5.16 0 0 0-.68-.736 32.42 32.42 0 0 1-7.568-11.921 62.52 62.52 0 0 1-3.21-10.128 73.295 73.295 0 0 1-1.156-7.1c-.223-1.94-.068-3.904-.39-5.794-.527-3.082-.213-6.157-.342-9.232a4.68 4.68 0 0 0-.044-1.203 15.145 15.145 0 0 1-.345-4.794q-.02-14.313-.002-28.626a17.09 17.09 0 0 1 .27-3.19 10.173 10.173 0 0 0 .028-3.803 22.521 22.521 0 0 1-.299-4.196c-.015-1.075.006-2.15.011-3.225a7.56 7.56 0 0 1 1.104-.439 94.41 94.41 0 0 0 9.151-2.744c2.702-.914 5.469-1.631 8.198-2.466a35.494 35.494 0 0 0 3.763-1.29 46.358 46.358 0 0 1 8.814-2.404c5.05-1.093 10.183-1.799 15.168-3.19 4.859-1.357 9.782-2.427 14.707-3.484 3.301-.71 6.646-1.22 9.976-1.787 2.612-.445 5.233-.84 7.85-1.256Z"></path><path fill="#29232e" d="M160.248 373.696a34.823 34.823 0 0 0 2.048 4.782c.943 1.995 2.009 3.932 2.911 5.945a36.23 36.23 0 0 0 4.755 7.627 34.44 34.44 0 0 1 3.18 4.615c.486.875 1.056 1.705 1.627 2.528a68.328 68.328 0 0 1 4.522 7.335 15.244 15.244 0 0 0 3.746 4.609c.725 1.2 1.435 2.412 2.179 3.602a55.385 55.385 0 0 0 4.188 5.376c.715.882 1.417 1.776 2.116 2.672a9.583 9.583 0 0 1 1.922 6.012 58.52 58.52 0 0 0 .351 6.629 20.696 20.696 0 0 0 2.69 7.933c.804 1.39 1.618 2.776 2.37 4.194a12.125 12.125 0 0 1 1.451 4.358 9.464 9.464 0 0 0 1.423 3.727c1.255 2.137 2.33 4.367 3.37 6.617a14.317 14.317 0 0 1 1.32 8.212c-.245 1.722-.233 3.48-.409 5.215-.391 3.871-.857 7.735-1.234 11.608-.195 2.002-.292 4.015-.385 6.025-.156 3.357-.769 6.662-1.075 10.002-.22 2.404-.432 4.809-.651 7.213-.03.334-.081.665-.123.997-.796.023-1.592.064-2.388.065q-9.46.008-18.922.005c-.73 0-1.46.027-2.19.041l.048-.104a3.566 3.566 0 0 1-1.23-2.236c-.609-2.204-1.027-4.45-1.48-6.688a8.122 8.122 0 0 0-3.176-5.403 4.658 4.658 0 0 1-1.837-2.801 2.413 2.413 0 0 0-2.572-2.045c-4.55-.048-7.466-2.373-9.027-6.612a9.412 9.412 0 0 0-4.708-5.49c-4.757-2.366-7.252-6.263-7.746-11.622a70.196 70.196 0 0 0-1.654-8.498 13.595 13.595 0 0 1-.213-4.61c.284-2.283 1.503-3.53 3.747-3.284 3.117.343 6.256.11 9.354.573a7.796 7.796 0 0 0 2.582.003c4.414-.807 5.663-2.458 4.63-6.847-1.68-7.133-2.838-14.363-4.244-21.546a143.697 143.697 0 0 1-1.742-16.001c-.175-2.145-.586-4.264-.708-6.401-.114-1.986-1.433-2.513-2.9-3.107-1.486-.602-2.858-.683-4.07.52-1.377 1.37-2.917 2.56-4.29 3.922-3.854 3.822-8.558 6.4-13.16 9.068-2.57 1.49-5.489 2.388-8.213 3.651-5.045 2.339-7.038 6.474-7.196 11.794a22.82 22.82 0 0 0 .006 2.62c.748 8.724-3.502 15.038-9.67 20.403-5.743 4.998-11.312 10.199-17.461 14.72a147.793 147.793 0 0 0-16.774 13.963 23.256 23.256 0 0 1-3.435 2.421 11.696 11.696 0 0 0-2.039 1.615c-1.516 1.63-1.252 2.899.871 3.536a23.987 23.987 0 0 1 8.155 4.137 12.469 12.469 0 0 1 2.73 2.641 35.942 35.942 0 0 0 7.735 7.808 9.549 9.549 0 0 1 1.71 1.687c1.726 2.283 1.11 4.905-1.573 5.862-2.005.715-3.95 1.584-5.969 2.254l.033.103-8.437.015.036-.105c-.74-.29-.84-.972-.986-1.632a73.487 73.487 0 0 0-.969-3.91c-1.252-4.475-4.306-7.093-8.584-8.427a44.349 44.349 0 0 0-15.015-1.59 16.078 16.078 0 0 1-7.33-1.557c-3.402-1.524-6.946-2.723-10.435-4.045a4.958 4.958 0 0 0-1.943-.422c-3.565.155-5.233-1.252-6.671-5.675a48.23 48.23 0 0 1-1.68-9.302 32.812 32.812 0 0 0-2.112-8.163c-1.425-3.626-2.351-7.417-3.647-11.09-.905-2.565.342-4 3.046-3.953a8.9 8.9 0 0 1 3.093.727 29.092 29.092 0 0 0 6.088 1.898 6.264 6.264 0 0 1 4.443 3.116 35.901 35.901 0 0 1 5.465 13.734 16.388 16.388 0 0 0 .916 3.5c.421 1.08.898 1.023 1.46.101.42-.687.786-1.403 1.162-2.114a17.342 17.342 0 0 1 5.491-6.538c4.528-3.064 7.352-7.503 9.586-12.376a39.59 39.59 0 0 1 2.537-5.02c2.336-3.63 3.68-7.747 5.619-11.565a202.093 202.093 0 0 1 14.527-24.06c3.528-5.058 6.76-10.3 10.024-15.526a52.58 52.58 0 0 1 7.056-9.233 13.324 13.324 0 0 1 4.923-3.313c.191-.075.307-.319.562-.27-.293-.063-.416.28-.683.29-9.388 4.478-18.243 9.931-27.296 15.022-14.623 8.223-29.734 15.27-46.202 18.938-2.205.492-4.387 1.104-6.61 1.516-.62.114-1.436.537-1.772-.512a1.666 1.666 0 0 1 .802-.884c2.645-.601 5.295-1.18 7.933-1.812a338.325 338.325 0 0 0 7.13-1.81 67.633 67.633 0 0 0 9.39-3.275q3.114-1.332 6.27-2.567c2.475-.97 4.971-1.885 7.347-3.098 2.435-1.243 4.924-2.386 7.31-3.718 4.356-2.433 8.864-4.588 13.055-7.328 1.39-.908 2.902-1.626 4.349-2.448 1.561-.887 3.112-1.793 4.667-2.692.172-.1.335-.22.512-.31 2.016-1.03 4.021-2.077 5.986-3.21a48.738 48.738 0 0 1 10.72-4.268c4.967-1.467 9.86-3.191 14.789-4.792 1.325-.43 2.685-.757 3.995-1.228a793.71 793.71 0 0 0 12.91-4.735 16.712 16.712 0 0 0 3.388-1.71c3.218-2.16 6.888-3.105 10.517-4.18 1.987-.06 3.929-.703 5.938-.462l.034.056c.625 1.286-.265 1.622-1.174 1.624-6.018.013-11.127 2.647-16.363 5.258a110.81 110.81 0 0 1-16.836 6.3c-2.738.846-5.451 1.765-8.171 2.665a9.182 9.182 0 0 1-3.287.635c4.83-.115 9.203-.348 13.607.327a61.959 61.959 0 0 0 14.542.13c3.918-.327 6.895-3.05 10.154-4.963 2.759-1.619 5.183-3.775 7.997-5.324.741-.408 1.435-1.035 2.396-.698.59.585.48 1.552 1.125 2.108Z"></path><path fill="#e5a57f" d="M215.028 444.24a21.663 21.663 0 0 1 2.462-3.142c1.304-1.506 2.44-3.16 3.655-4.744a51.378 51.378 0 0 0 4.577-7.259q2.728-5.141 5.492-10.263a17.332 17.332 0 0 0 1.821-4.863c.237-1.2.73-1.598 1.927-1.588 1.52.013 3.062-.235 4.55.321a2.33 2.33 0 0 0 .793.061c4.328.004 8.656-.016 12.984.023a2.252 2.252 0 0 0 1.709-.825 3.19 3.19 0 0 0 2.857.297 55.235 55.235 0 0 0 9.964-2.686 48.724 48.724 0 0 0 7.979-3.603c1.689-1.05 3.494-1.935 5.118-3.098 1.781-1.275 3.458-2.698 5.238-3.975a23.616 23.616 0 0 0 4.106-3.796c2.867-3.324 6.033-6.41 8.24-10.277 1.126-1.972 2.288-3.922 3.434-5.883 1.792-3.066 3.313-6.275 4.886-9.456a57.405 57.405 0 0 0 1.562-3.477c1.46-3.521 3.08-6.974 4.54-10.495.896-2.159 1.65-4.381 2.401-6.598 1.119-3.296 2.176-6.614 3.267-9.92.143-.436.33-.857.513-1.323.41.434.157.928.281 1.35a11.285 11.285 0 0 1-.39 2.976c-.525 2.285-.984 4.583-1.291 6.914a22.716 22.716 0 0 1-.82 3.726 33.252 33.252 0 0 1-3.86 8.8 12.665 12.665 0 0 0-1.734 3.383c-.614 2.06-1.504 4.011-2.28 6.008-1.574 4.059-3.092 8.14-4.668 12.199a105.382 105.382 0 0 1-6.56 13.553 75.971 75.971 0 0 0-1.527 2.826 66.66 66.66 0 0 1-2.869 5.065c-1.239 1.985-2.301 4.08-3.512 6.084-1.588 2.627-3.246 5.211-4.874 7.813-.17-.254-.43-.374-.672-.198-1.13.825-2.294 1.615-3.346 2.535a122.987 122.987 0 0 1-6.206 5.049c-.75.574-1.565 1.015-2.353 1.509a66.152 66.152 0 0 1-15.947 7.278 11.838 11.838 0 0 1-1.943.418 14.92 14.92 0 0 0-2.71.623 3.197 3.197 0 0 0-2.594 3.143c-.026.855-.172 1.726-.181 2.598-.019 1.88 0 3.763-.062 5.642a14.74 14.74 0 0 1-4.422 10.456 3.976 3.976 0 0 0-.276.291 9.93 9.93 0 0 1-4.791 3.099c-1.077.341-2.124.778-3.18 1.182a9.65 9.65 0 0 0-4.54 3.146c-.784.68-.731 2.537-2.173 2.119-1.215-.352-.899-1.901-1.16-2.954-.092-.373.057-.795-.183-1.152a21.077 21.077 0 0 0-2.528-6.705 35.629 35.629 0 0 0-7.049-9.14c-1.178-1.068-2.434-2.048-3.655-3.067Z"></path><path fill="#d5d5d5" d="M228.26 463.152c.505.442.332 1.12.561 1.664.282.668.466 1.378.727 2.056a.28.28 0 0 0 .48.077 14.467 14.467 0 0 0 .963-1.256 1.325 1.325 0 0 1 .785-.553 29.353 29.353 0 0 1-1.401 4.594 93.467 93.467 0 0 0-3.239 12.396 20.429 20.429 0 0 0-.543 4.17c.034 1.06-.442 2.076-.385 3.175a15.466 15.466 0 0 0 .32 3.382c.027.095-.08.317-.155.333-.174.038-.438.057-.54-.044a2.574 2.574 0 0 1-.801-1.99c.088-2.135-.01-4.257.285-6.41.455-3.307.97-6.592 1.614-9.865a42.073 42.073 0 0 0 .49-4.376c.106-1.198.303-2.397.52-3.56.236-1.274.187-2.534.319-3.793Z"></path><path fill="#3c3641" d="M355.306 511.526a4.798 4.798 0 0 1 .166-.985 134.859 134.859 0 0 0 5.022-16.084c.721-2.85 1.489-5.69 2.159-8.553.424-1.816.738-3.66 1.046-5.501.397-2.366.59-4.765 1.133-7.109a6.182 6.182 0 0 0 .077-1.203 16.985 16.985 0 0 1 .364-4.796 4.836 4.836 0 0 0 .04-1.405c.004-2.083.058-4.169-.015-6.25-.039-1.097.42-2.114.374-3.176-.043-.992-.412-1.948-.368-2.976.062-1.476.014-2.957.016-4.435a7.13 7.13 0 0 1 .235-2.19 5.536 5.536 0 0 0 .149-1.592c.016-1.748.007-3.495.006-5.243a5.205 5.205 0 0 0-.234-1.987 1.753 1.753 0 0 1-.138-.785c.198-2.026-.397-3.993-.424-6a21.842 21.842 0 0 0-.456-2.764c-.346-2.441-.945-4.845-1.338-7.28a129.56 129.56 0 0 0-3.934-15.74 41.472 41.472 0 0 0-5.573-12.403 32.328 32.328 0 0 0-3.381-4.202c-.504-.51-.982-1.045-1.45-1.547.355-.552.802-.39 1.143-.342 1.113.156 2.23.305 3.338.471 2.546.384 5.06.977 7.598 1.426 1.301.23 2.653.215 3.93.526 1.753.426 3.578.148 5.309.69a6.631 6.631 0 0 0 1.19.09c1.575.184 3.146.414 4.725.561 2.372.221 4.662.936 7.053 1.093a26.051 26.051 0 0 1 4.68.864 17.344 17.344 0 0 0 5.499.703 1.66 1.66 0 0 1 1.836 1.21c.285.75.656 1.473.88 2.24.716 2.453 1.904 4.713 2.783 7.1 1.387 3.763 2.97 7.448 4.016 11.343.694 2.581 1.63 5.097 2.222 7.712.441 1.95.84 3.907 1.137 5.891.422 2.834 1.05 5.637 1.459 8.472.17 1.187.239 2.399.515 3.565.433 1.83.347 3.713.7 5.559a25.366 25.366 0 0 1 .087 4.223 14.539 14.539 0 0 0 .327 4.195 6.326 6.326 0 0 1 .067 1.804q.01 2.42.002 4.84a7.159 7.159 0 0 1-.225 2.191 5.621 5.621 0 0 0-.162 1.59c-.021 1.478-.007 2.957-.015 4.436a7.924 7.924 0 0 1-.27 2.588 5.23 5.23 0 0 0-.12 1.597c-.014 1.478-.003 2.957-.009 4.436a5.67 5.67 0 0 1-.274 2.382.847.847 0 0 0-.08.392c.16 2.089-.46 4.12-.445 6.199a6.916 6.916 0 0 1-.223 2.191 5.646 5.646 0 0 0-.165 1.59c-.023 1.344-.01 2.688-.014 4.033a4.324 4.324 0 0 1-.04 1.204c-.582 1.911-.26 3.869-.358 5.803a3.248 3.248 0 0 0 .507 1.914 1.035 1.035 0 0 0 1.36.486 2.174 2.174 0 0 0 1.514-1.482 10.332 10.332 0 0 0 .613-2.933 26.466 26.466 0 0 1 .744-7.364c.435-1.74.587-3.55.87-5.329a4.73 4.73 0 0 1 .159-.784c1.598-4.693 2.421-9.587 3.635-14.379.755-2.978 1.808-5.88 2.312-8.922.47-2.827 1.282-5.602 1.096-8.524-.093-1.473-.01-2.956-.019-4.435a7.935 7.935 0 0 0-.31-2.985 2.989 2.989 0 0 1-.081-.998 7.297 7.297 0 0 0-.308-2.583 3.551 3.551 0 0 1-.093-1.197 7.744 7.744 0 0 0-.284-2.385 5.684 5.684 0 0 1-.116-1.597 7.452 7.452 0 0 0-.271-2.387 4.66 4.66 0 0 1-.126-1.394 6.634 6.634 0 0 0-.26-2.187 3.518 3.518 0 0 1-.138-1.19 42.532 42.532 0 0 0-.646-5.159 8.07 8.07 0 0 1-.148-.989 26.539 26.539 0 0 0-.682-4.75c-.203-1.115-.267-2.246-.474-3.368-.604-3.276-1.104-6.577-1.56-9.875-.566-4.105-1.474-8.139-2.15-12.218-.207-1.25-.6-2.467-.91-3.7-.065-.258-.155-.513-.194-.775a.71.71 0 0 1 .611-.876 24.069 24.069 0 0 1 3.94-.473c5.66.057 11.322.024 16.983.028a11.315 11.315 0 0 1 2.763.273 9.574 9.574 0 0 0 2.78.11 28.391 28.391 0 0 1 5.128.57 33.06 33.06 0 0 0 4.709.642c1.078-.019 2.058.597 3.146.421 1.648.603 3.436.18 5.104.714a5.75 5.75 0 0 0 1.588.086 6.009 6.009 0 0 1 2.167.256 2.914 2.914 0 0 0 .98.138 11.32 11.32 0 0 1 3.946.392c2.467-.217 4.876.56 7.342.44a4.385 4.385 0 0 0 1.929-.403c-.34 1.013-.72 2.015-1.006 3.043a11.23 11.23 0 0 0-.496 2.557c-.163 4.637-.958 9.2-1.51 13.79a127.714 127.714 0 0 0-1.106 16.446 83.47 83.47 0 0 1-.778 12.036c-.516 3.79-.703 7.61-1.042 11.415-.125 1.402-.318 2.797-.468 4.197-.393 3.666-.74 7.339-1.179 11-.4 3.325-.902 6.638-1.348 9.958-.098.73-.187 1.464-.217 2.198a34.085 34.085 0 0 1-1.195 8.335 3.171 3.171 0 0 0-.06.599c-.38 1.407-.276 3.008-1.583 4.045l-.008.015c-.249.2-.164.58-.416.778-.372.63-.77 1.247-1.11 1.895a16.327 16.327 0 0 1-1.967 3.019 46.204 46.204 0 0 0-3.188 4.366 49.859 49.859 0 0 1-3.219 4.344 17.327 17.327 0 0 0-2.956 4.494c-.799.017-1.597.047-2.396.048q-44.643.003-89.287-.001c-.73 0-1.462-.044-2.193-.068Z"></path><path fill="#d5d5d5" d="m462.046 492.636 1.583-4.045a8.097 8.097 0 0 1-.295 3.181 1.589 1.589 0 0 0-.074.596 34.115 34.115 0 0 1-1.518 9.057c-.235.908-.462 1.812-.781 2.693a.628.628 0 0 0 .079.726c.31.034.483-.192.665-.376a45.624 45.624 0 0 0 3.21-3.308 69.805 69.805 0 0 0 5.565-7.814c.652-1.088 1.227-2.227 1.932-3.278 1.002-1.493 2.03-2.976 3.155-4.375a34.931 34.931 0 0 0 5.331-10.046c.994-2.696 2.03-5.38 3.144-8.028a40.86 40.86 0 0 1 5.699-9.165 106.736 106.736 0 0 0 7.76-11.886 92.79 92.79 0 0 1 4.865-8.29 20.927 20.927 0 0 1 3.758-4.394c1.734-1.346 3.205-3.01 5.073-4.186.5.39.397.952.4 1.475.013 1.937.015 3.873.02 5.81l-.026.78c-.682.284-.905.979-1.241 1.528a54.711 54.711 0 0 0-4.124 7.332c-.955 2.28-1.95 4.547-2.792 6.868a57.131 57.131 0 0 1-4.097 9.362 73.248 73.248 0 0 1-4.613 7.024c-2.594 3.467-5.177 6.938-7.653 10.491-2.362 3.39-4.792 6.73-7.19 10.094-.62.87-1.433 1.56-2.05 2.454q-3.065 4.44-6.308 8.754a24.503 24.503 0 0 1-5.95 6.143 6.285 6.285 0 0 1-6.022.856 1.358 1.358 0 0 1-.797-2.087c1.904-3.534 2.425-7.467 3.284-11.305.116-.52.258-1.035.352-1.56a.999.999 0 0 0-.344-1.08Z"></path><path fill="#d5d5d5" d="M461.622 493.429a.797.797 0 0 1 .416-.778.688.688 0 0 1-.416.778Z"></path><path fill="#3c3641" d="M101.518 384.932a8.975 8.975 0 0 1-.925.74 21.965 21.965 0 0 0-5.01 4.26 38.046 38.046 0 0 0-2.687 3.222c-1.421 2.016-2.761 4.091-4.087 6.173-1.254 1.967-2.421 3.99-3.67 5.961-2.32 3.664-4.799 7.217-7.336 10.733a60.45 60.45 0 0 0-3.504 5.604c-1.909 3.369-4.012 6.626-6.075 9.903a51.648 51.648 0 0 0-3.811 7.516 72.957 72.957 0 0 1-5.336 10.77 22.714 22.714 0 0 0-1.87 3.773 32.333 32.333 0 0 1-5.033 8.386c-.459.57-.877 1.175-1.343 1.739a20.683 20.683 0 0 1-3.22 2.675 18.626 18.626 0 0 0-2.639 2.111 21.57 21.57 0 0 0-3.053 4.444c-.588 1.199-1.293 2.34-1.962 3.498a.532.532 0 0 1-.96-.001 11.872 11.872 0 0 1-1.41-4.154 41.954 41.954 0 0 0-1.571-6.407 40.29 40.29 0 0 0-4.55-8.91 4.982 4.982 0 0 0-3.893-2.136 21.682 21.682 0 0 1-5.662-1.79 9.205 9.205 0 0 0-4.07-.744c-1.302.103-1.864.751-1.86 2.102a3.855 3.855 0 0 0 .365 1.554c1.162 2.643 1.719 5.487 2.702 8.189.434 1.194.916 2.372 1.299 3.583a37.865 37.865 0 0 1 1.7 7.2 73.664 73.664 0 0 0 1.512 8.865 13.929 13.929 0 0 0 1.987 4.124 3.039 3.039 0 0 0 2.73 1.427c2.579-.144 4.788.957 7.08 1.807 1.556.576 3.064 1.294 4.635 1.823a33.778 33.778 0 0 1 3.861 1.612 8.706 8.706 0 0 0 3.844.883c1.798-.01 3.6.083 5.391-.02a35.053 35.053 0 0 1 6.933.493 44.628 44.628 0 0 1 6.538 1.689 5.63 5.63 0 0 1 2.655 1.724 5.173 5.173 0 0 0 1.159 1.102 6.864 6.864 0 0 1 2.85 3.967 34.936 34.936 0 0 1 1.558 6.21 4.181 4.181 0 0 0 .374.924c-.532.014-1.064.039-1.596.039q-24.166.003-48.333 0c-.665 0-1.33-.023-1.996-.036l-4.45-16.928c-.41-1.557-.934-3.08-1.4-4.617a89.586 89.586 0 0 1-2.639-9.902c-.312-1.714-.733-3.412-1.19-5.094a33.86 33.86 0 0 1-.605-15.358 29.073 29.073 0 0 0 .464-4.808c.098-4.837.123-9.675.238-14.512.065-2.753.175-5.509.404-8.252a19.31 19.31 0 0 1 2.123-7.302 16.463 16.463 0 0 1 3.042-4.68.714.714 0 0 0 .708.27c2.422-.672 4.911-1.045 7.33-1.757 2.283-.672 4.626-1.136 6.94-1.703a72.262 72.262 0 0 0 10.915-3.712 81.314 81.314 0 0 1 8.336-3.29 29.588 29.588 0 0 0 3.816-1.714c3.326-1.53 6.585-3.22 9.817-4.947.874-.467 1.727-.997 2.618-1.443 2.976-1.49 5.844-3.172 8.666-4.937 1.184-.74 2.42-1.396 3.635-2.086 3.121-1.775 6.218-3.597 9.374-5.306 2.578-1.395 5.214-2.686 7.857-3.954a4.506 4.506 0 0 1 2.294-.59Z"></path><path fill="#e7e7e7" d="m14.791 511.598.01-.408c.266.142.26.278-.01.408Z"></path><path fill="#3c3641" d="m269.376 511.553 1.5-4.148c.687-1.896 1.643-3.666 2.5-5.483a58.403 58.403 0 0 1 4.447-8.085c2.109-3.091 3.885-6.388 5.966-9.494a22.946 22.946 0 0 0 1.234-2.063c1.191-2.26 2.918-4.14 4.304-6.265 1.2-1.841 2.581-3.564 3.912-5.316.925-1.22 1.883-2.415 2.856-3.597a96.95 96.95 0 0 0 6.31-8.255 85.786 85.786 0 0 0 4.544-7.778 16.48 16.48 0 0 1 1.372-2.656.683.683 0 0 1 .483-.283.627.627 0 0 1 .491.56c.413 2.23.837 4.458 1.22 6.693a10.927 10.927 0 0 1 .043 1.61 4.76 4.76 0 0 0 .205 1.79 1.626 1.626 0 0 1 .149.58c.035 3.282.732 6.537.428 9.828-.16 1.723-.45 3.434-.67 5.153-.06.464-.095.933-.11 1.4a10.794 10.794 0 0 1-.296 2.788 9.044 9.044 0 0 0-.105 2.203 11.667 11.667 0 0 1-.348 3.987 1.302 1.302 0 0 0 .027.596c.04.285.624.52.804.306a8.193 8.193 0 0 0 1.08-1.428 27.227 27.227 0 0 0 2.838-7.9c.33-1.904.78-3.79 1.065-5.701a44.683 44.683 0 0 0 .506-5.18c.083-2.685.036-5.376.019-8.064a13.402 13.402 0 0 0-.316-3.995 7.63 7.63 0 0 1-.079-2.004 11.394 11.394 0 0 0-.321-3.59 4.474 4.474 0 0 1-.075-1.4c-.008-1.614.04-3.229-.023-4.84a7.94 7.94 0 0 1 .88-3.875 29.167 29.167 0 0 1 1.933-3.517c2.096-3.1 4.144-6.232 6.217-9.347q1.44-2.166 2.868-4.34a105.412 105.412 0 0 0 5.039-9.601 14.434 14.434 0 0 0 .616-1.697c.161-.439.326-.877.506-1.308.106-.253.293-.488.58-.452a.782.782 0 0 1 .444.353 8.721 8.721 0 0 1 .472.886 106.592 106.592 0 0 1 5.663 13.292c.775 2.21 1.607 4.403 2.329 6.63a122.455 122.455 0 0 1 3.629 13.552c.553 2.746 1.117 5.492 1.598 8.252.835 4.797 1.653 9.597 2.71 14.352a6.317 6.317 0 0 1 .1 1.2 17.895 17.895 0 0 0 .292 2.987 21.808 21.808 0 0 1 .115 3.616 9.47 9.47 0 0 0 .303 3.189 4.271 4.271 0 0 1 .09 1.399c.01 1.344-.03 2.69.016 4.032.077 2.272.567 4.518.42 6.805.738 3.254.214 6.555.354 9.83-.675 2.646-.303 5.343-.368 8.017a28.596 28.596 0 0 1 .134 2.973 26.095 26.095 0 0 0-.14 2.804c-.598.014-1.196.04-1.793.04q-39.587.004-79.174 0c-.598 0-1.196-.026-1.793-.04ZM83.521 511.543a10.773 10.773 0 0 1 4.974-2.394 4.725 4.725 0 0 0 1.115-.416 3.034 3.034 0 0 0 1.12-4.96 15.163 15.163 0 0 0-1.884-1.79c-1.163-.992-2.381-1.917-3.53-2.924a22.993 22.993 0 0 1-3.669-4.224 13.197 13.197 0 0 0-3.4-3.34 19.78 19.78 0 0 0-4.404-2.711c-1.437-.516-2.904-.947-4.363-1.396-.887-.273-1.05-.482-1.136-1.387a3 3 0 0 1 1.008-2.69 16.709 16.709 0 0 1 2.54-1.929 30.264 30.264 0 0 0 5.417-4.395c1.548-1.548 3.357-2.826 4.952-4.33 2.09-1.97 4.517-3.498 6.685-5.372 2.209-1.908 4.648-3.544 6.98-5.307a59.986 59.986 0 0 0 6.403-5.405c1.452-1.455 3.171-2.635 4.658-4.058 1.64-1.568 3.573-2.81 5.025-4.571a37.79 37.79 0 0 0 4.1-5.413 17.863 17.863 0 0 0 2.604-9.16c-.04-2.014-.065-4.033.005-6.046a14.639 14.639 0 0 1 2.305-7.57 10.28 10.28 0 0 1 4.016-3.517 57.945 57.945 0 0 1 8.738-3.9 4.83 4.83 0 0 0 1.09-.488q4.12-2.632 8.22-5.297a28.864 28.864 0 0 0 4.03-3.258c1.647-1.555 3.372-3.022 4.99-4.616a3.004 3.004 0 0 1 3.521-.549q1.461.64 2.924 1.276a1.5 1.5 0 0 1 .93 1.409 46.368 46.368 0 0 0 .71 5.55 10.376 10.376 0 0 1 .08 1.807 6.445 6.445 0 0 0 .26 2.386 1.864 1.864 0 0 1 .12.789 37.488 37.488 0 0 0 .432 6.6c.262 2.117.596 4.225.92 6.333.538 3.493 1.4 6.924 1.916 10.425.486 3.302 1.28 6.548 2.084 9.788a15.844 15.844 0 0 1 .672 4.544 3.225 3.225 0 0 1-1.754 2.932 10.592 10.592 0 0 1-5.09 1.536 2.648 2.648 0 0 1-.796-.027c-1.82-.592-3.695-.302-5.546-.365a8.7 8.7 0 0 1-2.76-.301 7.506 7.506 0 0 0-1.583-.116c-1.957-.238-3.048.922-3.255 3.17a14.928 14.928 0 0 0 .56 5.566c.602 2.058.778 4.197 1.316 6.27.278 1.067.298 2.241.51 3.356a10.575 10.575 0 0 0 4.633 7.202 25.806 25.806 0 0 0 3.396 2.094 5.74 5.74 0 0 1 2.331 2.14 13.088 13.088 0 0 1 1.73 3.378 10.49 10.49 0 0 0 1.896 3.29 5.46 5.46 0 0 0 2.734 1.922 12.228 12.228 0 0 0 4.08.768c1.629-.058 2.274.497 2.729 2.04a2.736 2.736 0 0 1 .057.399 3.456 3.456 0 0 0 1.722 2.594c1.855 1.067 2.566 2.841 3.072 4.737.446 1.672.776 3.378 1.114 5.078a42.19 42.19 0 0 0 1.313 4.836c-.73.02-1.461.058-2.192.058q-45.69.004-91.382 0c-.664 0-1.329-.033-1.993-.05ZM392.995 392.583c-1.868-.322-3.791-.515-5.634-1.013a52.06 52.06 0 0 0-5.275-.922c-1.435-.234-2.861-.514-4.295-.745-1.366-.22-2.755-.33-4.133-.512-2.555-.339-5.147-.44-7.68-.887-3.71-.654-7.465-1.003-11.148-1.849a15.307 15.307 0 0 0-4.13-.548c-.913.043-1.792-.46-2.744-.402a1.403 1.403 0 0 1-1.02-.567c-.614-.616-1.277-1.192-1.825-1.863-1.473-1.805-2.878-3.667-4.345-5.476-3.11-3.834-5.743-8.024-8.793-11.906a18.421 18.421 0 0 1-2.913-5.234 36.444 36.444 0 0 0-3.438-6.764c-.258-.42-.117-.714.368-.938a1.17 1.17 0 0 1 .952-.095c.687.248 1.408.409 2.081.69a91.999 91.999 0 0 0 14.827 4.577 16.739 16.739 0 0 0 3.918.615 21.435 21.435 0 0 1 3.336.455 40.576 40.576 0 0 1 7.911 1.896c1.748.64 3.552 1.124 5.292 1.783a86.075 86.075 0 0 1 12.162 5.54c1.903 1.082 3.656 2.43 5.473 3.665.164.111.28.296.447.4a11.055 11.055 0 0 1 4.464 4.449c.898 1.846 2.423 3.359 2.992 5.416a6.798 6.798 0 0 0 .605 1.27c1.302 2.496 2.309 5.125 3.4 7.716.364.867.052 1.313-.855 1.25Z"></path><path fill="#1e1e1e" d="M119.927 282.469a16.558 16.558 0 0 0-4.765-3.334 1.023 1.023 0 0 1-.228-.667c-.017-4.926 1.077-9.719 1.878-14.53 1.698-10.19 3.181-20.383 2.912-30.758a62.761 62.761 0 0 0-.221-4.011l4.335-1.198a3.704 3.704 0 0 1 1.107 2.3 60.37 60.37 0 0 1 2.384 16.256c-.054 4.357.037 8.716-.021 13.073-.108 8.111-.86 16.18-1.763 24.233-.108.966-.072 2.04-.9 2.797l-1.631-1.294a5.124 5.124 0 0 1-3.087-2.867Z"></path><path fill="#1e1e1e" d="M133.967 304.115a25.917 25.917 0 0 1-2.107-4.935 37.444 37.444 0 0 0-2.807-6.593c-.667-1.285-1.552-2.456-2.34-3.678-.497-3.652.465-7.21.734-10.809.39-5.216.793-10.429 1.094-15.653.193-3.352.345-6.697.36-10.054a87.285 87.285 0 0 0-2.61-22.333c-.247-.953-.673-1.94.005-2.906a3.226 3.226 0 0 1 1.608-.699c1.886-.586 3.792-1.107 5.695-1.637a2.018 2.018 0 0 1 .59.016q-.024.193-.032.388c-.063.227-.066.466-.14.69-.533 4.332-1.105 8.66-1.583 12.998-.229 2.068-.309 4.155-.406 6.235-.15 3.222-.357 6.446-.359 9.67-.002 3.963.088 7.932.314 11.888.19 3.349.658 6.681.954 10.025.313 3.55.782 7.077 1.375 10.587.38 2.251.815 4.493.988 6.774.041.536.087 1.071.118 1.607a48.132 48.132 0 0 0 .386 4.82 14.078 14.078 0 0 1 .054 2.613 1.454 1.454 0 0 1-1.114 1.489l-.04-.001c-.219-.207-.646-.102-.737-.502ZM114.322 230.47a16.643 16.643 0 0 1 3.558-.822c.79.825.653 1.88.615 2.863-.29 7.503-.169 15.04-1.568 22.46-1.393 7.388-2.278 14.855-3.462 22.274-.156.308-.432.644-.744.485-2.24-1.144-4.772-1.718-6.705-3.467-1.56-5.699-.22-11.18 1.336-16.607a233.142 233.142 0 0 0 6.142-24.964 3.902 3.902 0 0 1 .828-2.222Z"></path><path d="M126.296 227.154a7.372 7.372 0 0 0 .102.996c.588 2.465 1.23 4.917 1.773 7.392.27 1.232.298 2.517.551 3.755.365 1.785.19 3.612.435 5.382.65 4.68.158 9.368.33 14.047a2.448 2.448 0 0 1-.025.801c-.54 1.703-.31 3.456-.363 5.19a11.935 11.935 0 0 1-.277 2.785 10.998 10.998 0 0 0-.12 2.4 11.092 11.092 0 0 1-.336 3.78.46.46 0 0 0-.03.198c.166 2.02-.423 3.983-.435 5.99a5.342 5.342 0 0 1-.25 1.982 1.9 1.9 0 0 0-.126.786c.115 1.885-.595 3.7-.454 5.586a.845.845 0 0 1-.357.685l-2.07-2.28c.22-2.19.358-4.391.772-6.56a8.535 8.535 0 0 0 .082-1.407 8.583 8.583 0 0 1 .29-2.587 5.693 5.693 0 0 0 .108-1.6 20.124 20.124 0 0 1 .296-3.393 21.338 21.338 0 0 0 .113-3.618 8.122 8.122 0 0 1 .259-2.592 4.343 4.343 0 0 0 .125-1.394c.008-6.656.035-13.31-.013-19.965a27.58 27.58 0 0 0-.465-4.583c-.443-2.497-1-4.974-1.54-7.453a16.017 16.017 0 0 1-.833-3.506 4.856 4.856 0 0 1 2.458-.817ZM113.136 277.564a22.751 22.751 0 0 1 .565-5.964c.21-1.383.41-2.767.607-4.151.311-2.177.59-4.358.932-6.53.33-2.105.711-4.202 1.091-6.3.38-2.1.54-4.234.86-6.332a64.965 64.965 0 0 0 .324-7.412 10.427 10.427 0 0 1 .296-3.186 4.353 4.353 0 0 0 .083-1.398c.002-2.214-.008-4.429-.013-6.643a3.384 3.384 0 0 1 1.62-.48c.393.13.772.294.772.79q.007 5.946-.001 11.89c-.522 1.498-.278 3.057-.378 4.59-.107 1.665-.246 3.333-.473 4.985-.326 2.377-.734 4.743-1.127 7.11-.327 1.974-.696 3.94-1.023 5.914-.207 1.25-.362 2.508-.558 3.76-.362 2.305-.76 4.604-1.093 6.913a22.65 22.65 0 0 0-.114 2.41c-.017.465.05.951-.364 1.303-1.124.31-1.684-.288-2.006-1.27ZM114.322 230.47a33.281 33.281 0 0 1-.99 6.298c-.94 4.29-1.987 8.558-3.059 12.817-.602 2.39-1.257 4.772-2.042 7.105a53.222 53.222 0 0 0-2.222 9.92 15.156 15.156 0 0 0 .158 5.583 11.978 11.978 0 0 1 .13 2.192.39.39 0 0 1-.382.129c-.204-.11-.252-.345-.397-.502-.133-.005-.267-.003-.398-.018-1.423-.162-1.57-.29-1.588-1.718-.026-2.078-.05-4.158.013-6.234a16.96 16.96 0 0 1 .418-2.762 83.045 83.045 0 0 1 2.21-8.72c1.302-4.14 2.36-8.342 3.354-12.564q.961-4.085 1.865-8.183a6.07 6.07 0 0 0 .114-1.396 3.578 3.578 0 0 1 .378-1.543 5.954 5.954 0 0 1 2.438-.404Z"></path><path fill="#1e1e1e" d="M304.541 187.274a93.762 93.762 0 0 1 4.724 11.035 162.322 162.322 0 0 1 5.09 18.087c.457 1.869.678 3.796.999 5.698a10.654 10.654 0 0 1 .334 3.964 8.016 8.016 0 0 1-.96-2.393c-1.838-4.748-3.683-9.491-5.637-14.195-2.315-5.574-4.872-11.029-7.424-16.49-1.077-2.303-2.132-4.617-3.197-6.926a21.153 21.153 0 0 1 6.071 1.22Z"></path><path fill="#e5a57f" d="M256.194 259.888a10.192 10.192 0 0 1-3.566-5.621 13.406 13.406 0 0 1-.056-7.114c.21-.837.3-1.703.49-2.545a22.404 22.404 0 0 1 2.113-5.353 23.08 23.08 0 0 1 2.939-4.495 2.34 2.34 0 0 0 .479-1.68c-.008-1.674-.006-3.347-.004-5.02 0-.469-.03-.955.499-1.203.773 1.082.45 2.33.51 3.516.043.872-.011 1.747.017 2.62.08 2.428.699 3.013 3.076 2.693 4.287-.578 8.551-1.309 12.874-1.611 9.086-.636 18.152-1.72 27.282-1.387 1.572.057 3.363-.285 4.556 1.295a17.39 17.39 0 0 0 .193 2.77 28.185 28.185 0 0 1 .57 4.745 4.478 4.478 0 0 0 .228 1.975 1.955 1.955 0 0 1 .145.78c-.093 2.803.684 5.56.42 8.37-1.595 2.416-3.196 4.827-4.778 7.251a1.946 1.946 0 0 1-.822.82c-4.443 5.397-10.312 7.485-17.085 7.677a50.78 50.78 0 0 1-28.46-7.76 3.806 3.806 0 0 0-1.62-.723Z"></path><path fill="#1e1e1e" d="M307.403 233.983a13.105 13.105 0 0 0-4.686-.693c-3.788-.064-7.576-.056-11.358.239q-5.664.44-11.33.856c-1.655.125-3.31.277-4.968.365-4.123.218-8.172 1.016-12.254 1.55a11.78 11.78 0 0 1-1.982.15 1.827 1.827 0 0 1-1.803-1.576.918.918 0 0 1-.03-.199c.003-2.606-.377-5.218.096-7.818l9.062-1.374c3.417-.519 6.855-.833 10.3-1.101 5.108-.398 10.22-.495 15.34-.385a48.138 48.138 0 0 1 7.131.713c.392.067.792.081 1.189.12.05.044.094.112.152.129a16.999 16.999 0 0 1 7.957 5.476 267.578 267.578 0 0 1 3.516 4.113 4.797 4.797 0 0 1 .53.843.519.519 0 0 1-.476.695 2.33 2.33 0 0 1-1.145-.27 56.3 56.3 0 0 0-2.745-1.196 6.456 6.456 0 0 0-2.496-.637ZM326.49 248.563l.099.839c-.393 1.796-.783 3.592-1.18 5.387-.143.64-.305 1.275-.459 1.913-1.367.492-1.841.355-2.424-.777a7.517 7.517 0 0 1-.746-2.884 81.14 81.14 0 0 0-1.227-9.104c-.28-1.436-.668-2.85-.992-4.277-.088-.384-.12-.78-.178-1.171.73-1.045.402-2.214.233-3.293a14.858 14.858 0 0 1-.265-2.38c.007-1.41-.598-2.753-.438-4.178-.605-1.452-.12-3.083-.735-4.534a101.101 101.101 0 0 0-2.435-12.762c-.982-3.817-1.892-7.655-3.197-11.38-.287-.82-.575-1.641-.912-2.44a3.476 3.476 0 0 1-.29-1.363c-.145-.423.045-.503.408-.405 1.36 2.61 2.743 5.207 4.075 7.83a90.362 90.362 0 0 1 6.427 16.202 94.089 94.089 0 0 1 2.368 10.333c.38 2.3.55 4.633 1.056 6.913a8.421 8.421 0 0 1 .068 1.606 8.674 8.674 0 0 0 .27 2.586 5.412 5.412 0 0 1 .118 1.596c.016 1.476.01 2.953.016 4.43.003.464-.058.95.34 1.313Z"></path><path fill="#e5a57f" d="M309.355 255.046a1.014 1.014 0 0 1-.39-.852l-.006-1.57a1.005 1.005 0 0 1 .393.851l.003 1.57Z"></path><path fill="#1e1e1e" d="M315.674 226.04c.598.285.48.8.41 1.3a1.56 1.56 0 0 1-.41-1.3Z"></path><path fill="#3c3641" d="M159.123 371.588a54.841 54.841 0 0 0-7.24 4.576 35.193 35.193 0 0 1-5.198 3.346c-1.064.535-2.056 1.221-3.07 1.855a12.333 12.333 0 0 1-6.591 1.957c-3.127.013-6.255-.053-9.38.02a18.578 18.578 0 0 1-4.926-.53 11.313 11.313 0 0 0-2.756-.296c-3.325-.004-6.65-.002-10.177-.002a2.595 2.595 0 0 1 1.422-.777c4.919-1.618 9.86-3.17 14.756-4.854 3.827-1.317 7.605-2.78 11.391-4.214a12.048 12.048 0 0 0 2.318-1.166 35.606 35.606 0 0 1 10.45-4.317 15.363 15.363 0 0 1 4.14-.407c.333.002.666.009.998-.009.787-.042.787-.047.998-1.136a19.68 19.68 0 0 1 2.865 5.954Z"></path><path fill="#c54b43" d="M134.017 225.913a.55.55 0 0 1 .14-.692.494.494 0 0 1-.14.692Z"></path><path fill="#da9b76" d="M105.933 274.357a.395.395 0 0 0 .364.028 41.733 41.733 0 0 1 6.84 3.179 8.634 8.634 0 0 0 2.005 1.269q.017.15.02.302l-1.272 4.84a1.851 1.851 0 0 1-.658.987 2.73 2.73 0 0 0-.934 2.516c.053 1.005-.015 2.015.02 3.022a7.07 7.07 0 0 1-1.371 4.516 8.388 8.388 0 0 0-1.667 3.6 8.998 8.998 0 0 0-.092 2.993c.18.994.255 1.982.364 2.977a36.536 36.536 0 0 0 .776 4.526 10.527 10.527 0 0 0 7.06 7.79c2.559.931 5.145 1.792 7.738 2.627a23.03 23.03 0 0 0 4.258.927 14.313 14.313 0 0 1 5.18 1.264 3.927 3.927 0 0 1 1.662 5.627 6.19 6.19 0 0 1-2.753 2.79 35.575 35.575 0 0 1-4.724 2.037c-2.37.706-4.591.18-6.82-.538a1.784 1.784 0 0 1-1.128-1.072 5.272 5.272 0 0 1-.352-3.53 10.85 10.85 0 0 1 .854-2.668 5.595 5.595 0 0 0 .45-1.327.377.377 0 0 0-.457-.463 11.534 11.534 0 0 1-4.093.667 5.628 5.628 0 0 1-3.783-1.53 23.09 23.09 0 0 1-5.392-7.154c-.964-1.913-2.08-3.735-3.136-5.593a36.314 36.314 0 0 1-1.969-3.957c-.873-2.096-1.705-4.21-2.42-6.373a77.907 77.907 0 0 1-2.034-7.546 16.484 16.484 0 0 1-.516-6.17c.534-3.32 1.314-6.58 3.887-9.033a5.325 5.325 0 0 0 1.304-1.51l2.374-.03a.323.323 0 0 1 .415.01Z"></path><path fill="#da9b76" d="M119.927 282.469a17.92 17.92 0 0 1 3.087 2.867 1.14 1.14 0 0 0-.196 1.312 7.333 7.333 0 0 1 .303 1.97 30.03 30.03 0 0 0 .685 4.13c1.084 4.004 2.521 7.891 3.989 11.766.236.625.38 1.285.607 1.914a5.504 5.504 0 0 1-.062 3.926q-.601 1.594-1.24 3.174a5.881 5.881 0 0 0-.41 1.334c-.157 1.037-.566 1.39-1.528 1.478a.658.658 0 0 1-.199.005c-1.676-.381-3.42-.634-4.733-1.892a26.724 26.724 0 0 1-3.997-4.466 10.74 10.74 0 0 1-.768-1.406 20.913 20.913 0 0 1-1.522-5.588 10.266 10.266 0 0 1 1.839-7.236c.752-1.183 1.498-2.374 2.326-3.503a6.134 6.134 0 0 0 .886-2.001 16.36 16.36 0 0 0 .466-2.352 2.814 2.814 0 0 0-.046-1.392c-.627-1.475-.085-2.75.513-4.04ZM133.967 304.115a1.163 1.163 0 0 1 .738.502c-.38.033-.677-.058-.738-.502Z"></path><path fill="#1e1e1e" d="m105.933 274.357-.415-.01v-.335Z"></path><path fill="#111212" d="m311.752 195.754-.409.405a5.33 5.33 0 0 1-1.184-3.235h-.002a11.367 11.367 0 0 1 1.595 2.83Z"></path><path fill="#111212" d="M310.159 192.924a1.384 1.384 0 0 1-.275-.242c-.092-.138-.034-.252.126-.274.029-.004.091.089.103.145a3.454 3.454 0 0 1 .044.372Z"></path><path fill="#da9b76" d="M233.018 309.909a14.414 14.414 0 0 1-6.622-3.71 21.47 21.47 0 0 0-3.515-2.843 3.182 3.182 0 0 1-.657-.709c-1.35-.807-1.269-2.088-1.032-3.366a42.186 42.186 0 0 1 2.651-8.399 67.014 67.014 0 0 0 3.638-13.725 2.586 2.586 0 0 1 .341-1.136 33.525 33.525 0 0 0 .071-5.733c-.124-1.734-.363-3.454-.585-5.162a47.488 47.488 0 0 0-2.63-10.035c-.5-1.378-1.1-2.72-1.654-4.077-.27-.19-.599-.357-.73-.659a3.92 3.92 0 0 0-3.973-2.636c-.264.007-.463-.227-.576-.487.429-.945 1.321-.734 2.074-.825 2.15-.261 2.564-.716 2.638-2.937a21.438 21.438 0 0 0-.337-3.392c-.098-.777-.42-1.575.035-2.35 1.985-.146 3.614.85 5.192 1.81a19.378 19.378 0 0 1 6.648 6.51 56.642 56.642 0 0 1 3.609 5.774 47.701 47.701 0 0 1 1.858 5.074 58.58 58.58 0 0 1 1.672 6.395c.279 1.372.502 2.753.745 4.127a26.504 26.504 0 0 0 .592 3.955 1.493 1.493 0 0 1 .113.588 33.779 33.779 0 0 0 .46 6.195c.184 2.12.706 4.207.941 6.324.282 2.533 1.3 4.906 1.472 7.458a5.025 5.025 0 0 0 .446 1.538 52.467 52.467 0 0 0 4.56 8.914c1.068 1.612 1.949 3.337 3.173 4.859a13.441 13.441 0 0 0 4.203 3.91c.802.41.936.933.449 1.632-2.035 2.92-4.119 5.795-7.757 6.894.24.416.605.246.894.32-.352 1.021-.964.816-1.63.352a1.12 1.12 0 0 0-.887-.369c-3.523-.16-6.122-2.01-8.205-4.697-1.223-1.579-2.31-3.264-3.476-4.888a2.985 2.985 0 0 0-.612-.498c-1.302-1.029-2.452-2.239-3.78-3.238a7.49 7.49 0 0 0-5.519-1.654c2.087 2.685 5.068 3.443 7.823 4.646a2.016 2.016 0 0 1-2.121.25Z"></path><path fill="#88534f" d="M249.795 320.357c.576.037 1.166.14 1.63-.351a9.737 9.737 0 0 0 2.684-.732 64.14 64.14 0 0 1 6.527-1.838 11.923 11.923 0 0 1 2.368-.285c1.333-.008 2.665.009 3.997-.005a24.384 24.384 0 0 1 10.046 2.258 78.3 78.3 0 0 0 4.455 1.768 1.264 1.264 0 0 1 .953 1.702 19.186 19.186 0 0 1-1.74 4.917c-1.07 2.088-2.126 4.189-3.314 6.208a32.102 32.102 0 0 1-8.848 9.998 50.457 50.457 0 0 1-7.596 4.428 36.848 36.848 0 0 1-11.25 3.302 19.29 19.29 0 0 1-6.544.235 3.12 3.12 0 0 0-.598-.025 38.898 38.898 0 0 1-17.221-4.505 55.95 55.95 0 0 1-7.41-4.358 20.889 20.889 0 0 1-3.614-3.459c-.642-.746-.605-1.203.103-1.924a45.767 45.767 0 0 1 4.943-4.387 98.398 98.398 0 0 1 11.439-7.34 277.697 277.697 0 0 1 5.433-2.99c.703-.375 1.453-.665 2.19-.973a14.596 14.596 0 0 1 7.006-1.23 20.619 20.619 0 0 0 4.36-.414Z"></path><path fill="#e5a57f" d="m217.772 247.32 2.787.072a.871.871 0 0 1 .838.44 23.183 23.183 0 0 1 1.627 3.181c-.433.331-.397.811-.397 1.278-.001 1.47-.005 2.941 0 4.412a19.554 19.554 0 0 1-.896 6.286c-.93 2.761-1.614 5.639-3.102 8.192-1.1 3.394-3.665 5.73-6.074 8.067-7.221 7.006-16.087 10.396-25.936 11.399a16.551 16.551 0 0 1-7.134-1.222c.612.51.89.711.776 1.115-1.894.078-3.445-.889-5.004-1.754a13.767 13.767 0 0 1-2.507-1.954 43.076 43.076 0 0 1-6.673-8.438 3.053 3.053 0 0 1-.198-.349 43.264 43.264 0 0 1-3.494-9.14 6.839 6.839 0 0 1-.112-1.194 2.416 2.416 0 0 0-.78-1.78c-.213-1.147.674-1.709 1.323-2.302a49.581 49.581 0 0 1 21.374-11.97c10.294-2.634 20.869-3.195 31.306-4.758a2.6 2.6 0 0 1 2.276.42Z"></path><path fill="#1e1e1e" d="M217.772 247.32a91.637 91.637 0 0 0-9.115 1.035c-1.979.247-3.962.456-5.946.663a106.66 106.66 0 0 0-13.59 2.135c-2.005.475-4.002.995-6.02 1.414a33.973 33.973 0 0 0-10.46 4.369 52.803 52.803 0 0 0-9.738 7.333 4.8 4.8 0 0 0-1.41 1.661c-.121.055-.242.112-.364.164a.492.492 0 0 1-.552-.042.432.432 0 0 1-.135-.535c2.207-4.2 3.798-8.706 6.31-12.757a25.58 25.58 0 0 1 4.356-5.716 11.604 11.604 0 0 1 4.268-2.512 119.316 119.316 0 0 1 14.673-3.683c5.487-1.031 11.01-1.806 16.535-2.567a76.573 76.573 0 0 1 13.295-1.104 3.82 3.82 0 0 1 2.276.55 18.862 18.862 0 0 1 .779 6.867 8.612 8.612 0 0 1-.19 1.175 1.045 1.045 0 0 1-.92.901q-1.166.187-2.336.344c-.577.078-1.192-.074-1.716.306Z"></path><path fill="#da9b76" d="M253.753 393.408a7.883 7.883 0 0 1-3.144-.327 1.084 1.084 0 0 0-.393-.057 75.639 75.639 0 0 1-9.234-1.19 66.675 66.675 0 0 1-6.61-1.324 25.368 25.368 0 0 1-6.428-2.629 51.62 51.62 0 0 1-4.605-3.135 31.652 31.652 0 0 0-3.545-2.229c-2.09-1.172-4.22-2.273-6.326-3.415q-2.808-1.523-5.6-3.076c-.18-.1-.32-.316-.193-.492a.695.695 0 0 1 .507-.205 1.587 1.587 0 0 1 .566.174c2.707 1.1 5.42 2.182 8.115 3.313 1.408.591 2.707 1.422 4.168 1.92a10.06 10.06 0 0 1 1.91 1.068c1.928 1.182 3.842 2.386 5.769 3.568a14.95 14.95 0 0 0 3.904 1.493q3.73 1.035 7.52 1.852a18.993 18.993 0 0 0 5.104.665 4.837 4.837 0 0 1 1.39.078 12.206 12.206 0 0 0 5.906.003 2.767 2.767 0 0 1 .792-.08c2.77.137 5.377-.716 7.99-1.424a35.206 35.206 0 0 0 6.7-2.544 41.308 41.308 0 0 0 8.265-5.531c1.883-1.613 3.584-3.39 5.359-5.103a53.898 53.898 0 0 0 3.865-4.574 25.508 25.508 0 0 0 2.28-3.037c1.07-1.771 2.243-3.488 3.193-5.323a34.24 34.24 0 0 0 2.789-5.543c.195-.634.373-1.275.607-1.895a.54.54 0 0 1 .467-.24.618.618 0 0 1 .394.386 1.629 1.629 0 0 1-.007.777 43.28 43.28 0 0 1-4.411 10.72 78.066 78.066 0 0 1-4.767 6.66 69.983 69.983 0 0 1-4.72 5.688c-1.061 1.194-2.077 2.432-3.206 3.567a41.127 41.127 0 0 1-13.238 8.738 35.026 35.026 0 0 1-6.221 2.043 16.84 16.84 0 0 1-4.912.66Z"></path><path fill="#e5a57f" d="M227.822 276.021a37.45 37.45 0 0 1-1.304 8.633 65.173 65.173 0 0 1-2.167 6.413c-.76 2.27-1.552 4.53-2.347 6.787a21.56 21.56 0 0 1-.476 2.34 1.218 1.218 0 0 0 .083.768c.182.569.406 1.124.613 1.685a31.676 31.676 0 0 1-4.889 3.413 17.218 17.218 0 0 1-5.328 2.173 2.648 2.648 0 0 0-1.784 1.14 32.424 32.424 0 0 1-3.187 3.839 66.16 66.16 0 0 0-3.292 4.516 4.593 4.593 0 0 1-.833.842.387.387 0 0 1-.363.005c-.088-.054-.183-.25-.148-.326a11.151 11.151 0 0 1 .971-1.962c1.288-1.778 2.639-3.51 3.982-5.245a13.585 13.585 0 0 1 .966-1.017 46.203 46.203 0 0 0 5.021-6.2c.57-.85.851-1.801 1.327-2.677 1.174-2.161 2.326-4.341 3.344-6.58 1.577-3.466 3.256-6.88 4.922-10.3 1.086-2.229 2.438-4.297 3.707-6.413.372-.618.554-1.38 1.182-1.834ZM268.988 284.493c1.934 1.517 3.903 2.972 5.704 4.676 2.46 2.328 5.119 4.445 7.722 6.617a18.998 18.998 0 0 0 2.156 1.442c1.692 1.056 3.343 2.195 5.107 3.114a23.32 23.32 0 0 0 7.643 2.772 2.428 2.428 0 0 1 .879.444.396.396 0 0 1 .105.34.404.404 0 0 1-.231.276 3.179 3.179 0 0 1-1.77-.07 29.378 29.378 0 0 1-4.847-1.793 24.919 24.919 0 0 1-3.364-1.707 1.408 1.408 0 0 0-.728-.312 17.776 17.776 0 0 1-5.487-1.728 41.208 41.208 0 0 1-6.059-2.558c-1.652-.995-3.312-1.976-4.95-2.995a2.161 2.161 0 0 0-1.08-.453c-.445-.523-.253-1.13-.214-1.712a9.31 9.31 0 0 0-.607-4.86 1.289 1.289 0 0 1 .02-1.493Z"></path><path fill="#da9b76" d="M268.988 284.493a2.77 2.77 0 0 0 .2.762c1.419 2.337 1.205 4.802.6 7.303-.54.532-.842 1.302-1.597 1.617a21.946 21.946 0 0 0-7.996 12.502c-.554.526-.49 1.38-.997 1.923a.662.662 0 0 1-.494.213.48.48 0 0 1-.377-.606c.122-.518.316-1.019.471-1.53.426-1.405.931-2.792 1.25-4.222a9.675 9.675 0 0 1 2.99-5.31c.348-.311.624-.714.997-.984 1.758-1.273 1.986-3.171 2.163-5.125.302-3.335-.83-6.32-2.154-9.26-.548-1.218-1.19-2.387-1.654-3.651a13.83 13.83 0 0 0-1.33-2.227 13.082 13.082 0 0 1-.69-1.215.637.637 0 0 1 .316-.848c.278-.175.503-.05.68.182 1.372 1.797 2.772 3.573 4.103 5.4 1.212 1.663 2.349 3.382 3.519 5.076Z"></path><path fill="#db9b76" d="M256.194 259.888a.722.722 0 0 1 1.04-.247c1.147.671 2.27 1.382 3.417 2.053a50.695 50.695 0 0 0 5.605 2.603 65.297 65.297 0 0 0 11.066 3.168.846.846 0 0 0 .195.037c3.052-.024 6.081.825 9.126.415 2.672-.36 5.398-.431 7.968-1.506a22.353 22.353 0 0 0 6.7-4.24c.617-.574 1.047-1.437 2.048-1.478a2.042 2.042 0 0 1-.598 1.631 16.05 16.05 0 0 1-2.737 2.313 22.68 22.68 0 0 1-6.927 3.388 19.025 19.025 0 0 1-5.88.746 57.407 57.407 0 0 0-4.186 0 35.095 35.095 0 0 1-10.01-1.185 56.126 56.126 0 0 1-11.175-4.072c-1.72-.848-3.338-1.914-4.985-2.91a3.564 3.564 0 0 1-.667-.716ZM180.26 290.54c-.322-.513-.976-.376-1.387-.72-.192-.16-.521-.255-.358-.604.132-.282.426-.252.685-.279a3.248 3.248 0 0 1 1.537.37 15.108 15.108 0 0 0 7.46.775 39.332 39.332 0 0 0 10.346-2.721c1.472-.607 2.991-1.124 4.403-1.851a31.834 31.834 0 0 0 7.003-4.55 22.63 22.63 0 0 0 1.99-1.65c2.091-2.403 4.534-4.526 5.969-7.465a1.427 1.427 0 0 1 .721-.665 4.504 4.504 0 0 0 .398.406 3.14 3.14 0 0 1-.677 1.65 28.002 28.002 0 0 1-3.479 4.375c-1.065 1.011-2.078 2.08-3.11 3.128a27.21 27.21 0 0 1-7.117 5.041 68.387 68.387 0 0 1-7.652 3.34 29.555 29.555 0 0 1-4.4 1.22c-2.07.413-4.164.711-6.256.992a9.534 9.534 0 0 1-4.125-.474 5.699 5.699 0 0 0-1.95-.318Z"></path><path fill="#e5a57f" d="M260.195 306.677a20.843 20.843 0 0 1 1.258-5.207 11.615 11.615 0 0 1 4.013-5.32c.918-.644 1.818-1.316 2.725-1.975-.802 3.908-2.93 7.14-5.225 10.264a6.066 6.066 0 0 1-2.771 2.238ZM233.018 309.909a4.256 4.256 0 0 0 1.735-.205c-1.643-.545-3.264-.747-4.608-1.658a14.108 14.108 0 0 1-3.722-3.092 3.341 3.341 0 0 1 2.75-.484 10.678 10.678 0 0 1 4.837 2.527c.986.889 2.137 1.567 2.605 2.908a6.201 6.201 0 0 0-1.545.306c-.69.133-1.45.34-2.052-.302Z"></path><path fill="#db9c77" d="M204.237 358.704c0-.201.013-.403-.002-.603a28.924 28.924 0 0 1 1.038-9.105c.246-1.001.04-2.005.23-2.99.034-.178.127-.41.395-.316.105.037.255.15.262.24a18.27 18.27 0 0 1-.032 4.402c-.286 1.771-.872 3.51-.992 5.286a24.52 24.52 0 0 0 .18 6.991 33.8 33.8 0 0 1 .464 3.551.323.323 0 0 1-.35.382.455.455 0 0 1-.328-.159 7.963 7.963 0 0 1-.857-3.458c-.015-1.407-.004-2.814-.004-4.221ZM245.928 366.781a34.742 34.742 0 0 1-11.447-1.997c-.187-.068-.382-.112-.566-.187-.5-.202-.832-.64-.63-.817.302-.264.605-.103.929-.036 1.55.32 3.014.963 4.603 1.167a39.487 39.487 0 0 0 5.681.667c1.857-.03 3.714-.01 5.571-.005a4.051 4.051 0 0 1 .79.067.461.461 0 0 1 .259.25c.12.263-.103.385-.276.416a15.155 15.155 0 0 1-4.318.478 5.579 5.579 0 0 0-.596-.003Z"></path><path fill="#dc9c78" d="M295.779 340.312a3.734 3.734 0 0 1-.188 1.683.571.571 0 0 1-.633.363c-.236-.051-.297-.236-.34-.429a1.371 1.371 0 0 1-.038-.398 15.387 15.387 0 0 0-.74-5.12 10.016 10.016 0 0 0-.75-2.055 45.185 45.185 0 0 0-2.32-4.432.332.332 0 0 1 .135-.506c.168-.063.469-.104.55-.011a7.316 7.316 0 0 1 1.073 1.429 27.953 27.953 0 0 1 2.547 5.866 23.484 23.484 0 0 1 .704 3.61Z"></path><path fill="#db9c77" d="M256.233 361.912c-.413-.028-.567-.132-.637-.338a.415.415 0 0 1 .191-.518 25.577 25.577 0 0 1 2.343-1.052 19.216 19.216 0 0 0 6.987-4.433c.327-.323.603-.741 1.099-.81a.65.65 0 0 1 .522.156.546.546 0 0 1 .001.526 13.002 13.002 0 0 1-1.659 1.719 29.545 29.545 0 0 1-8.27 4.643 2.657 2.657 0 0 1-.577.107Z"></path><path fill="#e5a57f" d="m219.027 271.586-.398-.406Z"></path><path fill="#3c3641" d="M101.522 384.937a1.388 1.388 0 0 1 .239-.275c.136-.093.248-.035.267.126.004.028-.088.09-.144.101a3.422 3.422 0 0 1-.366.043Z"></path><path fill="#da9b76" d="M279.008 263.92c-.4 0-.8-.014-1.199.003-4.743.196-8.775-1.612-12.562-4.326a39.335 39.335 0 0 1-5.287-4.567c-.46-.471-1.06-.8-1.568-1.228a1.148 1.148 0 0 1-.366-1.599c.28-.606.615-1.189.951-1.766a20.212 20.212 0 0 1 5.709-6.077 35.723 35.723 0 0 1 4.712-3 27.824 27.824 0 0 1 9.2-3.138 17.803 17.803 0 0 1 8.092.529 30.96 30.96 0 0 1 9.003 4.65 19.97 19.97 0 0 0 4.614 2.753c1.952.798 2.223 2.22 1.46 3.667-1.772 3.355-3.91 6.377-7.17 8.44-1.461.925-2.892 1.902-4.373 2.795a28.878 28.878 0 0 1-6.639 2.714 5.125 5.125 0 0 1-1.38.143c-1.065.02-2.131.007-3.197.007Z"></path><path fill="#fff" d="M277.376 326.043a36.184 36.184 0 0 1-8.038 6.574 56.593 56.593 0 0 1-15.38 6.554 84.753 84.753 0 0 1-20.788 2.218 29.346 29.346 0 0 1-9.36-1.823 13.223 13.223 0 0 1-4.59-2.877 8.226 8.226 0 0 1 2.614-.995c2.873-.875 5.843-1.297 8.775-1.885 4.564-.917 9.11-1.915 13.656-2.919 2.92-.644 5.89-1.067 8.845-1.544 5.585-.902 11.104-2.126 16.594-3.48 2.453-.605 4.887-1.288 7.33-1.935 1.203.524.521 1.36.342 2.112Z"></path><path fill="#d9a588" d="M277.376 326.043c-.042-.716.297-1.495-.344-2.112.44-.484 1.118-.239 1.622-.543.156-.095.417-.146.519.061a.59.59 0 0 1-.049.518c-.565.706-1.162 1.387-1.748 2.076Z"></path><path fill="#da9b76" d="M193.588 280.862a6.97 6.97 0 0 0-.798.004 27.328 27.328 0 0 1-6.33-.497c-2.68-.315-5.32-.993-7.968-1.556a7.44 7.44 0 0 1-2.42-.895 1.019 1.019 0 0 1-.446-1.378 3.012 3.012 0 0 1 .258-.544c1.51-2.304 2.52-4.873 3.809-7.293.723-1.357 1.44-2.718 2.214-4.044a16.103 16.103 0 0 1 1.98-2.5 31.834 31.834 0 0 1 5.956-5.615 21.04 21.04 0 0 1 6.395-2.726 11.787 11.787 0 0 1 3.342-.393q1.297.038 2.595.002a22.465 22.465 0 0 1 9.967 2.388 13.475 13.475 0 0 1 3.295 2.225c.898.789 1.875 1.479 2.717 2.346a8.977 8.977 0 0 1 1.403 1.943 4.03 4.03 0 0 1 .342 3.65 8.682 8.682 0 0 1-2.057 3.388c-.692.627-1.335 1.312-1.98 1.99a29.014 29.014 0 0 1-8.194 5.954 40.523 40.523 0 0 1-4.888 2.259 21.887 21.887 0 0 1-7.994 1.295c-.4-.017-.799-.003-1.198-.003Z"></path><path fill="#1e1e1e" d="M275.049 257.083a51.485 51.485 0 0 1-11.53-1.662c-.577-.153-1.165-.263-1.742-.417a6.23 6.23 0 0 1-1.128-.386.983.983 0 0 1-.33-1.645 6.184 6.184 0 0 1 .566-.566 40.326 40.326 0 0 1 11.181-7.25 20.245 20.245 0 0 1 14.026-.688c1.72.506 3.41 1.115 5.106 1.7a30.605 30.605 0 0 0 6.34 1.7 2.25 2.25 0 0 1 .39.08c.44.135.947.208 1.07.765a1.132 1.132 0 0 1-.566 1.192 13.198 13.198 0 0 1-1.823 1.216 63.841 63.841 0 0 1-10.48 4.367 36.58 36.58 0 0 1-11.08 1.594ZM218.73 263.843a1.866 1.866 0 0 1 .452.378c.294.479.227.816-.161 1.014a1.692 1.692 0 0 1-.545.23 11.917 11.917 0 0 0-3.93 1.387 42.33 42.33 0 0 1-13.934 3.915c-2.242.246-4.475.566-6.712.852-.493.203-.973.316-1.366-.192.21-1.77 1.864-1.017 2.939-1.77a17.33 17.33 0 0 1-2.262-4.215c-.45-1.275.145-2.656-.54-3.866-.246-.25-.61-.443-.437-.897.042-.052.074-.122.128-.153a21.403 21.403 0 0 1 15.485-2.655 4.81 4.81 0 0 1 2.017.777c.173.467-.205.654-.446.91a1.114 1.114 0 0 0-.172 1.13c.702 2.417-.176 4.582-1.169 6.836 3.418-.589 6.194-2.567 9.377-3.378.424-.104.774-.539 1.277-.303Z"></path><path fill="#2a2624" d="M192.625 271.127c.288.527.816.419 1.275.492q-6.24 2.392-12.482 4.78a10.799 10.799 0 0 1-1.527.447.648.648 0 0 1-.537-.163.582.582 0 0 1-.016-.53 72.123 72.123 0 0 1 6.616-10.307 17.677 17.677 0 0 1 6.28-5.167.843.843 0 0 0 .748.43c.21.83-.528.975-.968 1.261-4.495 2.925-7.108 7.415-10.11 12.143a407.035 407.035 0 0 0 8.103-3.105c.822-.326 1.67-.93 2.618-.28Z"></path><path fill="#332c2c" d="M218.73 263.843c-.427.157-.495.783-1.028.804a44.783 44.783 0 0 0-7.824-4.587c-.393-.17-.917-.3-.831-.938a1.038 1.038 0 0 0 .817-.474 14.81 14.81 0 0 1 4.383 1.881 18.594 18.594 0 0 1 4.484 3.314Z"></path><path fill="#fdfdfd" d="M283.608 254.958c2.967-2.603 3.373-5.706 2.96-8.988.462-.348.808-.095 1.169.019 2.533.8 4.99 1.836 7.578 2.47a5.537 5.537 0 0 1 2.289.626c-2.087 1.863-9.645 5.075-13.996 5.873ZM272.393 255.676c-2.304.187-6.272-.527-11.19-1.972a.81.81 0 0 1 .32-.688 42.733 42.733 0 0 1 7.975-5.553c.416.325.167.628.102.913a6.103 6.103 0 0 0 1.476 5.764 14.469 14.469 0 0 1 1.317 1.536Z"></path><path fill="#f6f7f7" d="M273.288 248.323c0-.226-.005-.293 0-.36a1.876 1.876 0 0 1 1.144-1.738 1.658 1.658 0 0 1 1.76.648 1.873 1.873 0 0 1 .19 2.236 2.597 2.597 0 0 1-.692.7 1.42 1.42 0 0 1-2.353-1.046c-.033-.198-.045-.399-.05-.44Z"></path><path fill="#cfd8d8" d="M280.244 252.312a.95.95 0 0 1-.811-.96c.016-.58.522-1.11.972-1.018a1.169 1.169 0 0 1 .85.982 1.016 1.016 0 0 1-1.01.996Z"></path><path fill="#fefefe" d="M192.625 271.127a5.277 5.277 0 0 0-2.268.692c-2.68 1-5.339 2.056-8.007 3.089-.36.14-.697.418-1.12.205-.174-.295.057-.49.185-.69 1.334-2.087 2.652-4.187 4.027-6.247a22.62 22.62 0 0 1 6.923-6.586 7.373 7.373 0 0 0 .617-.482c.308.01.69-.11.709.41a.875.875 0 0 1-.022.198 8.402 8.402 0 0 0 2.348 7.696 2.937 2.937 0 0 1 .338.479c.026.043-.01.125-.033.317-1.194.322-2.55.243-3.697.92Z"></path><path fill="#fdfdfd" d="M209.047 259.122c1.065.512 2.11 1.075 3.2 1.524a27.194 27.194 0 0 1 5.193 3.298c.261.184.228.449.262.703a6.647 6.647 0 0 0-2.99.995 49.728 49.728 0 0 1-6.466 2.55 1.47 1.47 0 0 1-1.145.089c.042-.526.425-.84.63-1.245 1.189-2.35 1.743-4.756.704-7.327-.184-.457-.102-.516.612-.587Z"></path><path fill="#f1f4f4" d="M198.066 264.337a1.95 1.95 0 0 1-1.718-2.09 1.76 1.76 0 0 1 1.396-1.895 2.441 2.441 0 0 1 2.408 1.952 2.257 2.257 0 0 1-2.086 2.033Z"></path><path fill="#e3e9e9" d="M204.658 266.106a.822.822 0 0 1-.736.763.912.912 0 0 1-.896-1.04.707.707 0 0 1 .714-.742.905.905 0 0 1 .918 1.019Z"></path></svg>